Consolig-BoldItalic.ufo
<glyph name="asciitilde_asciitilde.liga" format="2">
  <advance width="1126"/>
  <outline>
    <contour>
      <point x="644" y="502" type="qcurve" smooth="yes"/>
      <point x="681" y="502"/>
      <point x="729" y="529"/>
      <point x="752" y="585"/>
      <point x="760" y="648"/>
      <point x="760" y="696" type="qcurve"/>
      <point x="918" y="696" type="line"/>
      <point x="918" y="450"/>
      <point x="761" y="370" type="qcurve" smooth="yes"/>
      <point x="710" y="344"/>
      <point x="638" y="344" type="qcurve" smooth="yes"/>
      <point x="586" y="344"/>
      <point x="496" y="378"/>
      <point x="427" y="434"/>
      <point x="370" y="493"/>
      <point x="300" y="559"/>
      <point x="269" y="578" type="qcurve" smooth="yes"/>
      <point x="239" y="596"/>
      <point x="212" y="596" type="qcurve" smooth="yes"/>
      <point x="161" y="596"/>
      <point x="94" y="531" type="qcurve" smooth="yes"/>
      <point x="83" y="521"/>
      <point x="13" y="451"/>
      <point x="-22" y="419"/>
      <point x="-86" y="374"/>
      <point x="-116" y="362" type="qcurve" smooth="yes"/>
      <point x="-160" y="344"/>
      <point x="-210" y="344" type="qcurve" smooth="yes"/>
      <point x="-253" y="344"/>
      <point x="-328" y="364"/>
      <point x="-398" y="413"/>
      <point x="-437" y="445"/>
      <point x="-511" y="520"/>
      <point x="-522" y="531" type="qcurve" smooth="yes"/>
      <point x="-545" y="553"/>
      <point x="-570" y="573"/>
      <point x="-619" y="596"/>
      <point x="-644" y="596" type="qcurve" smooth="yes"/>
      <point x="-711" y="596"/>
      <point x="-760" y="495"/>
      <point x="-760" y="401" type="qcurve"/>
      <point x="-918" y="401" type="line"/>
      <point x="-918" y="523"/>
      <point x="-837" y="690"/>
      <point x="-762" y="728" type="qcurve" smooth="yes"/>
      <point x="-711" y="754"/>
      <point x="-638" y="754" type="qcurve" smooth="yes"/>
      <point x="-586" y="754"/>
      <point x="-496" y="720"/>
      <point x="-428" y="664"/>
      <point x="-371" y="605"/>
      <point x="-301" y="539"/>
      <point x="-270" y="520" type="qcurve" smooth="yes"/>
      <point x="-240" y="502"/>
      <point x="-213" y="502" type="qcurve" smooth="yes"/>
      <point x="-191" y="502"/>
      <point x="-143" y="526"/>
      <point x="-120" y="546"/>
      <point x="-97" y="567" type="qcurve" smooth="yes"/>
      <point x="-84" y="579"/>
      <point x="-29" y="636"/>
      <point x="3" y="667"/>
      <point x="60" y="712"/>
      <point x="108" y="736"/>
      <point x="176" y="754"/>
      <point x="212" y="754" type="qcurve" smooth="yes"/>
      <point x="264" y="754"/>
      <point x="354" y="720"/>
      <point x="422" y="664"/>
      <point x="479" y="605"/>
      <point x="549" y="539"/>
      <point x="580" y="520" type="qcurve" smooth="yes"/>
      <point x="610" y="502"/>
    </contour>
  </outline>
</glyph>
<glyph name="asciitilde_at.liga" format="2">
  <advance width="1126"/>
  <outline>
    <contour>
      <point x="299" y="373" type="qcurve" smooth="yes"/>
      <point x="299" y="350" type="line" smooth="yes"/>
      <point x="299" y="313"/>
      <point x="302" y="269"/>
      <point x="312" y="218"/>
      <point x="337" y="193"/>
      <point x="357" y="193" type="qcurve" smooth="yes"/>
      <point x="364" y="193"/>
      <point x="376" y="195"/>
      <point x="388" y="201"/>
      <point x="396" y="205"/>
      <point x="406" y="216"/>
      <point x="412" y="221"/>
      <point x="422" y="235"/>
      <point x="425" y="240"/>
      <point x="435" y="256"/>
      <point x="436" y="258" type="qcurve" smooth="yes"/>
      <point x="448" y="277"/>
      <point x="471" y="326" type="qcurve"/>
      <point x="537" y="764" type="line"/>
      <point x="514" y="795"/>
      <point x="463" y="795" type="qcurve" smooth="yes"/>
      <point x="408" y="795"/>
      <point x="367" y="718" type="qcurve" smooth="yes"/>
      <point x="299" y="587"/>
    </contour>
    <contour>
      <point x="628" y="297" type="qcurve" smooth="yes"/>
      <point x="628" y="248"/>
      <point x="653" y="193"/>
      <point x="727" y="193"/>
      <point x="770" y="260"/>
      <point x="787" y="314" type="qcurve" smooth="yes"/>
      <point x="830" y="451"/>
      <point x="830" y="692" type="qcurve" smooth="yes"/>
      <point x="830" y="903"/>
      <point x="753" y="1196"/>
      <point x="653" y="1262" type="qcurve" smooth="yes"/>
      <point x="592" y="1303"/>
      <point x="502" y="1303" type="qcurve" smooth="yes"/>
      <point x="344" y="1303"/>
      <point x="217" y="1172" type="qcurve" smooth="yes"/>
      <point x="215" y="1170"/>
      <point x="195" y="1149"/>
      <point x="190" y="1144"/>
      <point x="171" y="1125"/>
      <point x="165" y="1117"/>
      <point x="149" y="1098"/>
      <point x="140" y="1087"/>
      <point x="127" y="1068"/>
      <point x="117" y="1052"/>
      <point x="106" y="1032"/>
      <point x="101" y="1022" type="qcurve" smooth="yes"/>
      <point x="62" y="941"/>
      <point x="9" y="797"/>
      <point x="-54" y="577"/>
      <point x="-65" y="544" type="qcurve" smooth="yes"/>
      <point x="-97" y="443"/>
      <point x="-210" y="344"/>
      <point x="-314" y="344" type="qcurve" smooth="yes"/>
      <point x="-397" y="344"/>
      <point x="-466" y="409" type="qcurve" smooth="yes"/>
      <point x="-519" y="458"/>
      <point x="-568" y="521" type="qcurve" smooth="yes"/>
      <point x="-572" y="526"/>
      <point x="-592" y="556"/>
      <point x="-604" y="569"/>
      <point x="-624" y="588"/>
      <point x="-647" y="596"/>
      <point x="-660" y="596" type="qcurve" smooth="yes"/>
      <point x="-716" y="596"/>
      <point x="-759" y="493"/>
      <point x="-759" y="401" type="qcurve"/>
      <point x="-919" y="401" type="line"/>
      <point x="-919" y="505"/>
      <point x="-870" y="660"/>
      <point x="-760" y="754"/>
      <point x="-679" y="754" type="qcurve" smooth="yes"/>
      <point x="-645" y="754"/>
      <point x="-582" y="736"/>
      <point x="-539" y="712"/>
      <point x="-489" y="666"/>
      <point x="-462" y="635"/>
      <point x="-416" y="579"/>
      <point x="-406" y="567" type="qcurve" smooth="yes"/>
      <point x="-404" y="564"/>
      <point x="-386" y="544"/>
      <point x="-380" y="537"/>
      <point x="-364" y="521"/>
      <point x="-353" y="514"/>
      <point x="-336" y="505"/>
      <point x="-319" y="502"/>
      <point x="-309" y="502" type="qcurve" smooth="yes"/>
      <point x="-267" y="502"/>
      <point x="-238" y="548" type="qcurve" smooth="yes"/>
      <point x="-208" y="591"/>
      <point x="-198" y="624" type="qcurve" smooth="yes"/>
      <point x="-138.186" y="844.564"/>
      <point x="-93.2495" y="954.764" type="qcurve" smooth="yes"/>
      <point x="-58.2574" y="1040.58"/>
      <point x="-18" y="1110" type="qcurve" smooth="yes"/>
      <point x="41" y="1211"/>
      <point x="195" y="1341"/>
      <point x="305" y="1386" type="qcurve" smooth="yes"/>
      <point x="401" y="1425"/>
      <point x="509" y="1425" type="qcurve" smooth="yes"/>
      <point x="742" y="1425"/>
      <point x="859" y="1236" type="qcurve" smooth="yes"/>
      <point x="971" y="1057"/>
      <point x="971" y="709" type="qcurve" smooth="yes"/>
      <point x="971" y="381"/>
      <point x="888" y="214" type="qcurve" smooth="yes"/>
      <point x="812" y="63"/>
      <point x="670" y="63" type="qcurve" smooth="yes"/>
      <point x="596" y="63"/>
      <point x="516" y="140"/>
      <point x="516" y="211" type="qcurve"/>
      <point x="479" y="135"/>
      <point x="434" y="98" type="qcurve" smooth="yes"/>
      <point x="392" y="63"/>
      <point x="328" y="63" type="qcurve" smooth="yes"/>
      <point x="224" y="63"/>
      <point x="140" y="217"/>
      <point x="140" y="356" type="qcurve" smooth="yes"/>
      <point x="140" y="500"/>
      <point x="207" y="746"/>
      <point x="271" y="826" type="qcurve" smooth="yes"/>
      <point x="349" y="924"/>
      <point x="471" y="924" type="qcurve" smooth="yes"/>
      <point x="547" y="924"/>
      <point x="590" y="897" type="qcurve"/>
      <point x="719" y="928" type="line"/>
      <point x="639" y="408" type="line" smooth="yes"/>
      <point x="628" y="335"/>
    </contour>
  </outline>
</glyph>
<glyph name="asciitilde_equal.liga" format="2">
  <advance width="1126"/>
  <outline>
    <contour>
      <point x="747" y="936" type="line"/>
      <point x="747" y="808"/>
      <point x="620" y="647"/>
      <point x="509" y="610" type="qcurve" smooth="yes"/>
      <point x="431" y="584"/>
      <point x="322" y="584" type="qcurve" smooth="yes"/>
      <point x="170" y="584"/>
      <point x="52" y="651" type="qcurve" smooth="yes"/>
      <point x="18" y="670"/>
      <point x="-91" y="756"/>
      <point x="-115" y="771" type="qcurve" smooth="yes"/>
      <point x="-217" y="836"/>
      <point x="-332" y="836" type="qcurve" smooth="yes"/>
      <point x="-382" y="836"/>
      <point x="-494" y="811"/>
      <point x="-513" y="789" type="qcurve" smooth="yes"/>
      <point x="-586" y="708"/>
      <point x="-586" y="641" type="qcurve"/>
      <point x="-746" y="641" type="line"/>
      <point x="-746" y="768"/>
      <point x="-618" y="932"/>
      <point x="-510" y="968" type="qcurve" smooth="yes"/>
      <point x="-432" y="994"/>
      <point x="-323" y="994" type="qcurve" smooth="yes"/>
      <point x="-171" y="994"/>
      <point x="-52" y="927" type="qcurve" smooth="yes"/>
      <point x="-18" y="908"/>
      <point x="90" y="822"/>
      <point x="114" y="807" type="qcurve" smooth="yes"/>
      <point x="216" y="742"/>
      <point x="331" y="742" type="qcurve" smooth="yes"/>
      <point x="385" y="742"/>
      <point x="497" y="767"/>
      <point x="516" y="788" type="qcurve" smooth="yes"/>
      <point x="537" y="812"/>
      <point x="559" y="841"/>
      <point x="587" y="905"/>
      <point x="587" y="936" type="qcurve"/>
    </contour>
    <contour>
      <point x="747" y="298" type="line"/>
      <point x="-746" y="298" type="line"/>
      <point x="-746" y="445" type="line"/>
      <point x="747" y="445" type="line"/>
    </contour>
  </outline>
</glyph>
<glyph name="asciitilde_hyphen.liga" format="2">
  <advance width="1126"/>
  <outline>
    <contour>
      <point x="-919" y="401" type="line"/>
      <point x="-919.13" y="407.545"/>
      <point x="-919.13" y="414.011" type="qcurve" smooth="yes"/>
      <point x="-919.13" y="513.828"/>
      <point x="-860.229" y="663.772"/>
      <point x="-730.944" y="754"/>
      <point x="-637" y="754" type="qcurve" smooth="yes"/>
      <point x="-542" y="754"/>
      <point x="-457" y="689" type="qcurve" smooth="yes"/>
      <point x="-433" y="671"/>
      <point x="-349" y="599"/>
      <point x="-326" y="582" type="qcurve" smooth="yes"/>
      <point x="-323" y="580"/>
      <point x="-294" y="558"/>
      <point x="-285" y="552"/>
      <point x="-258" y="536"/>
      <point x="-241" y="531"/>
      <point x="-214" y="525"/>
      <point x="-201" y="525" type="qcurve" smooth="yes"/>
      <point x="-189" y="525"/>
      <point x="-168" y="528"/>
      <point x="-143" y="537"/>
      <point x="-135" y="541"/>
      <point x="-102" y="557"/>
      <point x="-101" y="558" type="qcurve" smooth="yes"/>
      <point x="-21" y="598"/>
      <point x="20" y="608" type="qcurve" smooth="yes"/>
      <point x="81" y="625"/>
      <point x="203" y="627" type="qcurve" smooth="yes"/>
      <point x="721" y="627" type="line"/>
      <point x="721" y="463" type="line"/>
      <point x="203" y="463" type="line" smooth="yes"/>
      <point x="71" y="463"/>
      <point x="21" y="441" type="qcurve" smooth="yes"/>
      <point x="11" y="437"/>
      <point x="-92" y="383"/>
      <point x="-165" y="361"/>
      <point x="-207" y="361" type="qcurve" smooth="yes"/>
      <point x="-260" y="361"/>
      <point x="-342" y="396"/>
      <point x="-388" y="428" type="qcurve" smooth="yes"/>
      <point x="-446" y="468"/>
      <point x="-519" y="531" type="qcurve" smooth="yes"/>
      <point x="-522" y="534"/>
      <point x="-541" y="550"/>
      <point x="-549" y="557"/>
      <point x="-568" y="571"/>
      <point x="-579" y="578"/>
      <point x="-598" y="588"/>
      <point x="-613" y="592"/>
      <point x="-633" y="596"/>
      <point x="-643" y="596" type="qcurve" smooth="yes"/>
      <point x="-709" y="596"/>
      <point x="-759" y="493"/>
      <point x="-759" y="401" type="qcurve"/>
    </contour>
  </outline>
</glyph>
<glyph name="asterisk_asterisk_asterisk.liga" format="2">
  <advance width="1126"/>
  <outline>
    <contour>
      <point x="-958" y="380" type="line"/>
      <point x="-1026" y="261" type="line"/>
      <point x="-1307" y="447" type="line"/>
      <point x="-1284" y="105" type="line"/>
      <point x="-1427" y="105" type="line"/>
      <point x="-1405" y="447" type="line"/>
      <point x="-1692" y="261" type="line"/>
      <point x="-1755" y="378" type="line"/>
      <point x="-1448" y="529" type="line"/>
      <point x="-1755" y="683" type="line"/>
      <point x="-1686" y="800" type="line"/>
      <point x="-1403" y="611" type="line"/>
      <point x="-1427" y="953" type="line"/>
      <point x="-1284" y="953" type="line"/>
      <point x="-1309" y="611" type="line"/>
      <point x="-1026" y="802" type="line"/>
      <point x="-956" y="679" type="line"/>
      <point x="-1264" y="527" type="line"/>
    </contour>
    <contour>
      <point x="628" y="380" type="line"/>
      <point x="560" y="261" type="line"/>
      <point x="279" y="447" type="line"/>
      <point x="302" y="105" type="line"/>
      <point x="159" y="105" type="line"/>
      <point x="181" y="447" type="line"/>
      <point x="-106" y="261" type="line"/>
      <point x="-169" y="378" type="line"/>
      <point x="138" y="529" type="line"/>
      <point x="-169" y="683" type="line"/>
      <point x="-100" y="800" type="line"/>
      <point x="183" y="611" type="line"/>
      <point x="159" y="953" type="line"/>
      <point x="302" y="953" type="line"/>
      <point x="277" y="611" type="line"/>
      <point x="560" y="802" type="line"/>
      <point x="630" y="679" type="line"/>
      <point x="322" y="527" type="line"/>
    </contour>
    <contour>
      <point x="-165" y="840" type="line"/>
      <point x="-233" y="721" type="line"/>
      <point x="-514" y="907" type="line"/>
      <point x="-491" y="565" type="line"/>
      <point x="-634" y="565" type="line"/>
      <point x="-612" y="907" type="line"/>
      <point x="-899" y="721" type="line"/>
      <point x="-962" y="838" type="line"/>
      <point x="-655" y="989" type="line"/>
      <point x="-962" y="1143" type="line"/>
      <point x="-893" y="1260" type="line"/>
      <point x="-610" y="1071" type="line"/>
      <point x="-634" y="1413" type="line"/>
      <point x="-491" y="1413" type="line"/>
      <point x="-516" y="1071" type="line"/>
      <point x="-233" y="1262" type="line"/>
      <point x="-163" y="1139" type="line"/>
      <point x="-471" y="987" type="line"/>
    </contour>
  </outline>
</glyph>
<glyph name="bar_bar_equal.liga" format="2">
  <advance width="1126"/>
  <outline>
    <contour>
      <point x="-1325" y="-410" type="line"/>
      <point x="-1489" y="-410" type="line"/>
      <point x="-1489" y="1638" type="line"/>
      <point x="-1325" y="1638" type="line"/>
    </contour>
    <contour>
      <point x="-622" y="-410" type="line"/>
      <point x="-786" y="-410" type="line"/>
      <point x="-786" y="1638" type="line"/>
      <point x="-622" y="1638" type="line"/>
      <point x="-622" y="793" type="line"/>
      <point x="711" y="793" type="line"/>
      <point x="711" y="646" type="line"/>
      <point x="-622" y="646" type="line"/>
      <point x="-622" y="445" type="line"/>
      <point x="711" y="445" type="line"/>
      <point x="711" y="298" type="line"/>
      <point x="-622" y="298" type="line"/>
    </contour>
  </outline>
</glyph>
<glyph name="braceleft_bar.liga" format="2">
  <advance width="1126"/>
  <outline>
    <contour>
      <point x="-543" y="1083" type="line" smooth="yes"/>
      <point x="-543" y="1268"/>
      <point x="-353" y="1448"/>
      <point x="-162" y="1448" type="qcurve" smooth="yes"/>
      <point x="504" y="1448" type="line"/>
      <point x="504" y="-410" type="line"/>
      <point x="-162" y="-410" type="line" smooth="yes"/>
      <point x="-353" y="-410"/>
      <point x="-543" y="-232"/>
      <point x="-543" y="-45" type="qcurve" smooth="yes"/>
      <point x="-543" y="299" type="line" smooth="yes"/>
      <point x="-543" y="411"/>
      <point x="-659" y="506"/>
      <point x="-780" y="506" type="qcurve" smooth="yes"/>
      <point x="-823" y="506" type="line"/>
      <point x="-823" y="645" type="line"/>
      <point x="-780" y="645" type="line" smooth="yes"/>
      <point x="-682" y="645"/>
      <point x="-571" y="692"/>
      <point x="-553" y="756" type="qcurve" smooth="yes"/>
      <point x="-543" y="792"/>
      <point x="-543" y="846" type="qcurve" smooth="yes"/>
    </contour>
    <contour>
      <point x="340" y="1308" type="line"/>
      <point x="-147" y="1308" type="line" smooth="yes"/>
      <point x="-379" y="1308"/>
      <point x="-379" y="1083" type="qcurve" smooth="yes"/>
      <point x="-379" y="850" type="line" smooth="yes"/>
      <point x="-379" y="606"/>
      <point x="-590" y="575" type="qcurve"/>
      <point x="-485" y="575"/>
      <point x="-377" y="430"/>
      <point x="-377" y="301" type="qcurve" smooth="yes"/>
      <point x="-377" y="-41" type="line" smooth="yes"/>
      <point x="-377" y="-270"/>
      <point x="-147" y="-270" type="qcurve" smooth="yes"/>
      <point x="340" y="-270" type="line"/>
    </contour>
  </outline>
</glyph>
<glyph name="braceright_numbersign.liga" format="2">
  <advance width="1126"/>
  <outline>
    <contour>
      <point x="-301" y="-45" type="line" smooth="yes"/>
      <point x="-301" y="-231"/>
      <point x="-491" y="-410"/>
      <point x="-682" y="-410" type="qcurve" smooth="yes"/>
      <point x="-756" y="-410" type="line"/>
      <point x="-756" y="-270" type="line"/>
      <point x="-696" y="-270" type="line" smooth="yes"/>
      <point x="-465" y="-270"/>
      <point x="-465" y="-45" type="qcurve" smooth="yes"/>
      <point x="-465" y="157" type="line" smooth="yes"/>
      <point x="-465" y="401"/>
      <point x="-254" y="431" type="qcurve"/>
      <point x="-465" y="453"/>
      <point x="-465" y="706" type="qcurve" smooth="yes"/>
      <point x="-465" y="1079" type="line" smooth="yes"/>
      <point x="-465" y="1308"/>
      <point x="-696" y="1308" type="qcurve" smooth="yes"/>
      <point x="-756" y="1308" type="line"/>
      <point x="-756" y="1448" type="line"/>
      <point x="-682" y="1448" type="line" smooth="yes"/>
      <point x="-491" y="1448"/>
      <point x="-301" y="1270"/>
      <point x="-301" y="1083" type="qcurve" smooth="yes"/>
      <point x="-301" y="977" type="line"/>
      <point x="177" y="977" type="line"/>
      <point x="211" y="1308" type="line"/>
      <point x="357" y="1308" type="line"/>
      <point x="324" y="977" type="line"/>
      <point x="580" y="977" type="line"/>
      <point x="614" y="1308" type="line"/>
      <point x="762" y="1308" type="line"/>
      <point x="727" y="977" type="line"/>
      <point x="942" y="977" type="line"/>
      <point x="942" y="847" type="line"/>
      <point x="714" y="847" type="line"/>
      <point x="679" y="497" type="line"/>
      <point x="889" y="497" type="line"/>
      <point x="889" y="367" type="line"/>
      <point x="666" y="367" type="line"/>
      <point x="629" y="0" type="line"/>
      <point x="481" y="0" type="line"/>
      <point x="518" y="367" type="line"/>
      <point x="263" y="367" type="line"/>
      <point x="226" y="0" type="line"/>
      <point x="78" y="0" type="line"/>
      <point x="115" y="367" type="line"/>
      <point x="-63" y="367" type="line" smooth="yes"/>
      <point x="-160" y="367"/>
      <point x="-273" y="317"/>
      <point x="-291" y="251" type="qcurve" smooth="yes"/>
      <point x="-301" y="215"/>
      <point x="-301" y="161" type="qcurve" smooth="yes"/>
    </contour>
    <contour>
      <point x="532" y="497" type="line"/>
      <point x="567" y="847" type="line"/>
      <point x="311" y="847" type="line"/>
      <point x="276" y="497" type="line"/>
    </contour>
    <contour>
      <point x="-301" y="847" type="line"/>
      <point x="-301" y="708" type="line" smooth="yes"/>
      <point x="-301" y="596"/>
      <point x="-182" y="497"/>
      <point x="-63" y="497" type="qcurve" smooth="yes"/>
      <point x="128" y="497" type="line"/>
      <point x="164" y="847" type="line"/>
    </contour>
  </outline>
</glyph>
<glyph name="bracketright_numbersign.liga" format="2">
  <advance width="1126"/>
  <outline>
    <contour>
      <point x="-204" y="-410" type="line"/>
      <point x="-697" y="-410" type="line"/>
      <point x="-697" y="-270" type="line"/>
      <point x="-372" y="-270" type="line"/>
      <point x="-372" y="1308" type="line"/>
      <point x="-697" y="1308" type="line"/>
      <point x="-697" y="1448" type="line"/>
      <point x="-204" y="1448" type="line"/>
      <point x="-204" y="977" type="line"/>
      <point x="177" y="977" type="line"/>
      <point x="211" y="1308" type="line"/>
      <point x="357" y="1308" type="line"/>
      <point x="324" y="977" type="line"/>
      <point x="580" y="977" type="line"/>
      <point x="614" y="1308" type="line"/>
      <point x="762" y="1308" type="line"/>
      <point x="727" y="977" type="line"/>
      <point x="942" y="977" type="line"/>
      <point x="942" y="847" type="line"/>
      <point x="714" y="847" type="line"/>
      <point x="679" y="497" type="line"/>
      <point x="889" y="497" type="line"/>
      <point x="889" y="367" type="line"/>
      <point x="666" y="367" type="line"/>
      <point x="629" y="0" type="line"/>
      <point x="481" y="0" type="line"/>
      <point x="518" y="367" type="line"/>
      <point x="263" y="367" type="line"/>
      <point x="226" y="0" type="line"/>
      <point x="78" y="0" type="line"/>
      <point x="115" y="367" type="line"/>
      <point x="-204" y="367" type="line"/>
    </contour>
    <contour>
      <point x="532" y="497" type="line"/>
      <point x="567" y="847" type="line"/>
      <point x="311" y="847" type="line"/>
      <point x="276" y="497" type="line"/>
    </contour>
    <contour>
      <point x="-204" y="847" type="line"/>
      <point x="-204" y="497" type="line"/>
      <point x="128" y="497" type="line"/>
      <point x="164" y="847" type="line"/>
    </contour>
  </outline>
</glyph>
<glyph name="colon_colon.liga" format="2">
  <advance width="1126"/>
  <outline>
    <contour>
      <point x="422" y="1022" type="qcurve" smooth="yes"/>
      <point x="472" y="1022"/>
      <point x="546" y="968"/>
      <point x="564" y="927" type="qcurve" smooth="yes"/>
      <point x="576" y="898"/>
      <point x="576" y="868" type="qcurve" smooth="yes"/>
      <point x="576" y="803"/>
      <point x="487" y="715"/>
      <point x="422" y="715" type="qcurve" smooth="yes"/>
      <point x="356" y="715"/>
      <point x="269" y="803"/>
      <point x="269" y="868" type="qcurve" smooth="yes"/>
      <point x="269" y="918"/>
      <point x="321" y="991"/>
      <point x="362" y="1010" type="qcurve" smooth="yes"/>
      <point x="389" y="1022"/>
    </contour>
    <contour>
      <point x="422" y="289" type="qcurve" smooth="yes"/>
      <point x="472" y="289"/>
      <point x="546" y="235"/>
      <point x="564" y="194" type="qcurve" smooth="yes"/>
      <point x="576" y="166"/>
      <point x="576" y="135" type="qcurve" smooth="yes"/>
      <point x="576" y="70"/>
      <point x="487" y="-18"/>
      <point x="422" y="-18" type="qcurve" smooth="yes"/>
      <point x="356" y="-18"/>
      <point x="269" y="70"/>
      <point x="269" y="135" type="qcurve" smooth="yes"/>
      <point x="269" y="185"/>
      <point x="321" y="257"/>
      <point x="362" y="276" type="qcurve" smooth="yes"/>
      <point x="391" y="289"/>
    </contour>
    <contour>
      <point x="-422" y="1022" type="qcurve" smooth="yes"/>
      <point x="-372" y="1022"/>
      <point x="-298" y="968"/>
      <point x="-280" y="927" type="qcurve" smooth="yes"/>
      <point x="-268" y="898"/>
      <point x="-268" y="868" type="qcurve" smooth="yes"/>
      <point x="-268" y="803"/>
      <point x="-357" y="715"/>
      <point x="-422" y="715" type="qcurve" smooth="yes"/>
      <point x="-488" y="715"/>
      <point x="-575" y="803"/>
      <point x="-575" y="868" type="qcurve" smooth="yes"/>
      <point x="-575" y="918"/>
      <point x="-523" y="991"/>
      <point x="-482" y="1010" type="qcurve" smooth="yes"/>
      <point x="-455" y="1022"/>
    </contour>
    <contour>
      <point x="-422" y="289" type="qcurve" smooth="yes"/>
      <point x="-372" y="289"/>
      <point x="-298" y="235"/>
      <point x="-280" y="194" type="qcurve" smooth="yes"/>
      <point x="-268" y="166"/>
      <point x="-268" y="135" type="qcurve" smooth="yes"/>
      <point x="-268" y="70"/>
      <point x="-357" y="-18"/>
      <point x="-422" y="-18" type="qcurve" smooth="yes"/>
      <point x="-488" y="-18"/>
      <point x="-575" y="70"/>
      <point x="-575" y="135" type="qcurve" smooth="yes"/>
      <point x="-575" y="185"/>
      <point x="-523" y="257"/>
      <point x="-482" y="276" type="qcurve" smooth="yes"/>
      <point x="-453" y="289"/>
    </contour>
  </outline>
</glyph>
<glyph name="colon_colon_colon.liga" format="2">
  <advance width="1126"/>
  <outline>
    <contour>
      <point x="281" y="1022" type="qcurve" smooth="yes"/>
      <point x="331" y="1022"/>
      <point x="404" y="968"/>
      <point x="422" y="927" type="qcurve" smooth="yes"/>
      <point x="435" y="896"/>
      <point x="435" y="868" type="qcurve" smooth="yes"/>
      <point x="435" y="803"/>
      <point x="346" y="715"/>
      <point x="281" y="715" type="qcurve" smooth="yes"/>
      <point x="215" y="715"/>
      <point x="128" y="803"/>
      <point x="128" y="868" type="qcurve" smooth="yes"/>
      <point x="128" y="918"/>
      <point x="181" y="991"/>
      <point x="222" y="1010" type="qcurve" smooth="yes"/>
      <point x="249" y="1022"/>
    </contour>
    <contour>
      <point x="281" y="289" type="qcurve" smooth="yes"/>
      <point x="331" y="289"/>
      <point x="404" y="235"/>
      <point x="422" y="194" type="qcurve" smooth="yes"/>
      <point x="435" y="163"/>
      <point x="435" y="135" type="qcurve" smooth="yes"/>
      <point x="435" y="70"/>
      <point x="346" y="-18"/>
      <point x="281" y="-18" type="qcurve" smooth="yes"/>
      <point x="215" y="-18"/>
      <point x="128" y="70"/>
      <point x="128" y="135" type="qcurve" smooth="yes"/>
      <point x="128" y="185"/>
      <point x="181" y="257"/>
      <point x="222" y="276" type="qcurve" smooth="yes"/>
      <point x="251" y="289"/>
    </contour>
    <contour>
      <point x="-1407" y="1022" type="qcurve" smooth="yes"/>
      <point x="-1357" y="1022"/>
      <point x="-1284" y="968"/>
      <point x="-1266" y="927" type="qcurve" smooth="yes"/>
      <point x="-1253" y="896"/>
      <point x="-1253" y="868" type="qcurve" smooth="yes"/>
      <point x="-1253" y="803"/>
      <point x="-1342" y="715"/>
      <point x="-1407" y="715" type="qcurve" smooth="yes"/>
      <point x="-1473" y="715"/>
      <point x="-1560" y="803"/>
      <point x="-1560" y="868" type="qcurve" smooth="yes"/>
      <point x="-1560" y="918"/>
      <point x="-1507" y="991"/>
      <point x="-1466" y="1010" type="qcurve" smooth="yes"/>
      <point x="-1439" y="1022"/>
    </contour>
    <contour>
      <point x="-1407" y="289" type="qcurve" smooth="yes"/>
      <point x="-1357" y="289"/>
      <point x="-1284" y="235"/>
      <point x="-1266" y="194" type="qcurve" smooth="yes"/>
      <point x="-1253" y="163"/>
      <point x="-1253" y="135" type="qcurve" smooth="yes"/>
      <point x="-1253" y="70"/>
      <point x="-1342" y="-18"/>
      <point x="-1407" y="-18" type="qcurve" smooth="yes"/>
      <point x="-1473" y="-18"/>
      <point x="-1560" y="70"/>
      <point x="-1560" y="135" type="qcurve" smooth="yes"/>
      <point x="-1560" y="185"/>
      <point x="-1507" y="257"/>
      <point x="-1466" y="276" type="qcurve" smooth="yes"/>
      <point x="-1437" y="289"/>
    </contour>
    <contour>
      <point x="-563" y="1022" type="qcurve" smooth="yes"/>
      <point x="-513" y="1022"/>
      <point x="-440" y="968"/>
      <point x="-422" y="927" type="qcurve" smooth="yes"/>
      <point x="-409" y="896"/>
      <point x="-409" y="868" type="qcurve" smooth="yes"/>
      <point x="-409" y="803"/>
      <point x="-498" y="715"/>
      <point x="-563" y="715" type="qcurve" smooth="yes"/>
      <point x="-629" y="715"/>
      <point x="-716" y="803"/>
      <point x="-716" y="868" type="qcurve" smooth="yes"/>
      <point x="-716" y="918"/>
      <point x="-663" y="991"/>
      <point x="-622" y="1010" type="qcurve" smooth="yes"/>
      <point x="-595" y="1022"/>
    </contour>
    <contour>
      <point x="-563" y="289" type="qcurve" smooth="yes"/>
      <point x="-513" y="289"/>
      <point x="-440" y="235"/>
      <point x="-422" y="194" type="qcurve" smooth="yes"/>
      <point x="-409" y="163"/>
      <point x="-409" y="135" type="qcurve" smooth="yes"/>
      <point x="-409" y="70"/>
      <point x="-498" y="-18"/>
      <point x="-563" y="-18" type="qcurve" smooth="yes"/>
      <point x="-629" y="-18"/>
      <point x="-716" y="70"/>
      <point x="-716" y="135" type="qcurve" smooth="yes"/>
      <point x="-716" y="185"/>
      <point x="-663" y="257"/>
      <point x="-622" y="276" type="qcurve" smooth="yes"/>
      <point x="-593" y="289"/>
    </contour>
  </outline>
</glyph>
<glyph name="colon_colon_equal.liga" format="2">
  <advance width="1126"/>
  <outline>
    <contour>
      <point x="711" y="646" type="line"/>
      <point x="-431" y="646" type="line"/>
      <point x="-431" y="793" type="line"/>
      <point x="711" y="793" type="line"/>
    </contour>
    <contour>
      <point x="711" y="298" type="line"/>
      <point x="-431" y="298" type="line"/>
      <point x="-431" y="445" type="line"/>
      <point x="711" y="445" type="line"/>
    </contour>
    <contour>
      <point x="-910" y="715"/>
      <point x="-998" y="802"/>
      <point x="-998" y="868" type="qcurve" smooth="yes"/>
      <point x="-998" y="918"/>
      <point x="-945" y="992"/>
      <point x="-904" y="1010" type="qcurve" smooth="yes"/>
      <point x="-877" y="1022"/>
      <point x="-845" y="1022" type="qcurve" smooth="yes"/>
      <point x="-780" y="1022"/>
      <point x="-691" y="933"/>
      <point x="-691" y="803"/>
      <point x="-780" y="715"/>
    </contour>
    <contour>
      <point x="-845" y="289" type="qcurve" smooth="yes"/>
      <point x="-780" y="289"/>
      <point x="-691" y="200"/>
      <point x="-691" y="70"/>
      <point x="-780" y="-18"/>
      <point x="-845" y="-18" type="qcurve" smooth="yes"/>
      <point x="-895" y="-18"/>
      <point x="-968" y="35"/>
      <point x="-986" y="76" type="qcurve" smooth="yes"/>
      <point x="-998" y="103"/>
      <point x="-998" y="135" type="qcurve" smooth="yes"/>
      <point x="-998" y="185"/>
      <point x="-945" y="258"/>
      <point x="-904" y="276" type="qcurve" smooth="yes"/>
      <point x="-875" y="289"/>
    </contour>
    <contour>
      <point x="-1472" y="715"/>
      <point x="-1560" y="802"/>
      <point x="-1560" y="868" type="qcurve" smooth="yes"/>
      <point x="-1560" y="918"/>
      <point x="-1507" y="992"/>
      <point x="-1466" y="1010" type="qcurve" smooth="yes"/>
      <point x="-1439" y="1022"/>
      <point x="-1407" y="1022" type="qcurve" smooth="yes"/>
      <point x="-1342" y="1022"/>
      <point x="-1253" y="933"/>
      <point x="-1253" y="803"/>
      <point x="-1342" y="715"/>
    </contour>
    <contour>
      <point x="-1407" y="289" type="qcurve" smooth="yes"/>
      <point x="-1342" y="289"/>
      <point x="-1253" y="200"/>
      <point x="-1253" y="70"/>
      <point x="-1342" y="-18"/>
      <point x="-1407" y="-18" type="qcurve" smooth="yes"/>
      <point x="-1457" y="-18"/>
      <point x="-1530" y="35"/>
      <point x="-1548" y="76" type="qcurve" smooth="yes"/>
      <point x="-1560" y="103"/>
      <point x="-1560" y="135" type="qcurve" smooth="yes"/>
      <point x="-1560" y="185"/>
      <point x="-1507" y="258"/>
      <point x="-1466" y="276" type="qcurve" smooth="yes"/>
      <point x="-1437" y="289"/>
    </contour>
  </outline>
</glyph>
<glyph name="colon_greater.liga" format="2">
  <advance width="1126"/>
  <outline>
    <contour>
      <point x="-422" y="1022" type="qcurve" smooth="yes"/>
      <point x="-372" y="1022"/>
      <point x="-298" y="968"/>
      <point x="-280" y="927" type="qcurve" smooth="yes"/>
      <point x="-268" y="898"/>
      <point x="-268" y="868" type="qcurve" smooth="yes"/>
      <point x="-268" y="803"/>
      <point x="-357" y="715"/>
      <point x="-422" y="715" type="qcurve" smooth="yes"/>
      <point x="-488" y="715"/>
      <point x="-575" y="803"/>
      <point x="-575" y="868" type="qcurve" smooth="yes"/>
      <point x="-575" y="918"/>
      <point x="-523" y="991"/>
      <point x="-482" y="1010" type="qcurve" smooth="yes"/>
      <point x="-455" y="1022"/>
    </contour>
    <contour>
      <point x="-422" y="289" type="qcurve" smooth="yes"/>
      <point x="-372" y="289"/>
      <point x="-298" y="235"/>
      <point x="-280" y="194" type="qcurve" smooth="yes"/>
      <point x="-268" y="166"/>
      <point x="-268" y="135" type="qcurve" smooth="yes"/>
      <point x="-268" y="70"/>
      <point x="-357" y="-18"/>
      <point x="-422" y="-18" type="qcurve" smooth="yes"/>
      <point x="-488" y="-18"/>
      <point x="-575" y="70"/>
      <point x="-575" y="135" type="qcurve" smooth="yes"/>
      <point x="-575" y="185"/>
      <point x="-523" y="257"/>
      <point x="-482" y="276" type="qcurve" smooth="yes"/>
      <point x="-453" y="289"/>
    </contour>
    <contour>
      <point x="-125" y="985" type="line"/>
      <point x="-37" y="1106" type="line"/>
      <point x="985" y="545" type="line"/>
      <point x="-37" y="-16" type="line"/>
      <point x="-125" y="104" type="line"/>
      <point x="670" y="543" type="line"/>
    </contour>
  </outline>
</glyph>
<glyph name="eight.dnom" format="2">
  <advance width="1126"/>
  <outline>
    <contour>
      <point x="717" y="414" type="qcurve"/>
      <point x="791" y="381"/>
      <point x="874" y="288"/>
      <point x="874" y="207" type="qcurve" smooth="yes"/>
      <point x="874" y="147"/>
      <point x="823" y="59"/>
      <point x="733" y="8"/>
      <point x="624" y="-16"/>
      <point x="559" y="-16" type="qcurve" smooth="yes"/>
      <point x="469" y="-16"/>
      <point x="337" y="21"/>
      <point x="252" y="116"/>
      <point x="252" y="190" type="qcurve" smooth="yes"/>
      <point x="252" y="266"/>
      <point x="339" y="359"/>
      <point x="412" y="395" type="qcurve"/>
      <point x="344" y="428"/>
      <point x="266" y="514"/>
      <point x="266" y="662"/>
      <point x="353" y="759"/>
      <point x="483" y="799"/>
      <point x="567" y="799" type="qcurve" smooth="yes"/>
      <point x="697" y="799"/>
      <point x="860" y="705"/>
      <point x="860" y="604" type="qcurve" smooth="yes"/>
      <point x="860" y="487"/>
    </contour>
    <contour>
      <point x="582" y="473" type="qcurve"/>
      <point x="635" y="495"/>
      <point x="700" y="552"/>
      <point x="700" y="598" type="qcurve" smooth="yes"/>
      <point x="700" y="672"/>
      <point x="426" y="672"/>
      <point x="426" y="598" type="qcurve" smooth="yes"/>
      <point x="426" y="578"/>
      <point x="442" y="546"/>
      <point x="475" y="522"/>
      <point x="500" y="507"/>
      <point x="520" y="498" type="qcurve" smooth="yes"/>
      <point x="547" y="485"/>
    </contour>
    <contour>
      <point x="563" y="113" type="qcurve" smooth="yes"/>
      <point x="711" y="113"/>
      <point x="711" y="201" type="qcurve" smooth="yes"/>
      <point x="711" y="221"/>
      <point x="692" y="255"/>
      <point x="672" y="277"/>
      <point x="626" y="301"/>
      <point x="603" y="310"/>
      <point x="548" y="330"/>
      <point x="543" y="332" type="qcurve" smooth="yes"/>
      <point x="514" y="319"/>
      <point x="483" y="303"/>
      <point x="437" y="271"/>
      <point x="416" y="228"/>
      <point x="416" y="201" type="qcurve" smooth="yes"/>
      <point x="416" y="113"/>
    </contour>
  </outline>
</glyph>
<glyph name="eight.numr" format="2">
  <advance width="1126"/>
  <outline>
    <contour>
      <point x="717" y="1045" type="qcurve"/>
      <point x="791" y="1012"/>
      <point x="874" y="919"/>
      <point x="874" y="838" type="qcurve" smooth="yes"/>
      <point x="874" y="778"/>
      <point x="823" y="690"/>
      <point x="733" y="639"/>
      <point x="624" y="615"/>
      <point x="559" y="615" type="qcurve" smooth="yes"/>
      <point x="469" y="615"/>
      <point x="337" y="652"/>
      <point x="252" y="747"/>
      <point x="252" y="821" type="qcurve" smooth="yes"/>
      <point x="252" y="897"/>
      <point x="339" y="990"/>
      <point x="412" y="1026" type="qcurve"/>
      <point x="344" y="1059"/>
      <point x="266" y="1145"/>
      <point x="266" y="1293"/>
      <point x="353" y="1390"/>
      <point x="483" y="1430"/>
      <point x="567" y="1430" type="qcurve" smooth="yes"/>
      <point x="697" y="1430"/>
      <point x="860" y="1336"/>
      <point x="860" y="1235" type="qcurve" smooth="yes"/>
      <point x="860" y="1118"/>
    </contour>
    <contour>
      <point x="582" y="1104" type="qcurve"/>
      <point x="635" y="1126"/>
      <point x="700" y="1183"/>
      <point x="700" y="1229" type="qcurve" smooth="yes"/>
      <point x="700" y="1303"/>
      <point x="426" y="1303"/>
      <point x="426" y="1229" type="qcurve" smooth="yes"/>
      <point x="426" y="1209"/>
      <point x="442" y="1177"/>
      <point x="475" y="1153"/>
      <point x="500" y="1138"/>
      <point x="520" y="1129" type="qcurve" smooth="yes"/>
      <point x="547" y="1116"/>
    </contour>
    <contour>
      <point x="563" y="744" type="qcurve" smooth="yes"/>
      <point x="711" y="744"/>
      <point x="711" y="832" type="qcurve" smooth="yes"/>
      <point x="711" y="852"/>
      <point x="692" y="886"/>
      <point x="672" y="908"/>
      <point x="626" y="932"/>
      <point x="603" y="941"/>
      <point x="548" y="961"/>
      <point x="543" y="963" type="qcurve" smooth="yes"/>
      <point x="514" y="950"/>
      <point x="483" y="934"/>
      <point x="437" y="902"/>
      <point x="416" y="859"/>
      <point x="416" y="832" type="qcurve" smooth="yes"/>
      <point x="416" y="744"/>
    </contour>
  </outline>
</glyph>
<glyph name="equal_colon_equal.liga" format="2">
  <advance width="1126"/>
  <outline>
    <contour>
      <point x="-1837" y="646" type="line"/>
      <point x="-1837" y="793" type="line"/>
      <point x="-971" y="793" type="line"/>
      <point x="-971" y="646" type="line"/>
    </contour>
    <contour>
      <point x="-1837" y="298" type="line"/>
      <point x="-1837" y="445" type="line"/>
      <point x="-971" y="445" type="line"/>
      <point x="-971" y="298" type="line"/>
    </contour>
    <contour>
      <point x="711" y="646" type="line"/>
      <point x="-155" y="646" type="line"/>
      <point x="-155" y="793" type="line"/>
      <point x="711" y="793" type="line"/>
    </contour>
    <contour>
      <point x="711" y="298" type="line"/>
      <point x="-155" y="298" type="line"/>
      <point x="-155" y="445" type="line"/>
      <point x="711" y="445" type="line"/>
    </contour>
    <contour>
      <point x="-563" y="1022" type="qcurve" smooth="yes"/>
      <point x="-513" y="1022"/>
      <point x="-440" y="968"/>
      <point x="-422" y="927" type="qcurve" smooth="yes"/>
      <point x="-409" y="900"/>
      <point x="-409" y="868" type="qcurve" smooth="yes"/>
      <point x="-409" y="803"/>
      <point x="-498" y="715"/>
      <point x="-563" y="715" type="qcurve" smooth="yes"/>
      <point x="-629" y="715"/>
      <point x="-716" y="803"/>
      <point x="-716" y="868" type="qcurve" smooth="yes"/>
      <point x="-716" y="918"/>
      <point x="-663" y="991"/>
      <point x="-622" y="1010" type="qcurve" smooth="yes"/>
      <point x="-595" y="1022"/>
    </contour>
    <contour>
      <point x="-563" y="289" type="qcurve" smooth="yes"/>
      <point x="-513" y="289"/>
      <point x="-440" y="235"/>
      <point x="-422" y="194" type="qcurve" smooth="yes"/>
      <point x="-409" y="167"/>
      <point x="-409" y="135" type="qcurve" smooth="yes"/>
      <point x="-409" y="70"/>
      <point x="-498" y="-18"/>
      <point x="-563" y="-18" type="qcurve" smooth="yes"/>
      <point x="-629" y="-18"/>
      <point x="-716" y="70"/>
      <point x="-716" y="135" type="qcurve" smooth="yes"/>
      <point x="-716" y="185"/>
      <point x="-663" y="258"/>
      <point x="-622" y="276" type="qcurve" smooth="yes"/>
      <point x="-596" y="289"/>
    </contour>
  </outline>
</glyph>
<glyph name="equal_less_less.liga" format="2">
  <advance width="1126"/>
  <outline>
    <contour>
      <point x="73" y="94" type="line"/>
      <point x="-36" y="-16" type="line"/>
      <point x="-412" y="298" type="line"/>
      <point x="-1837" y="298" type="line"/>
      <point x="-1837" y="445" type="line"/>
      <point x="-588" y="445" type="line"/>
      <point x="-708" y="545" type="line"/>
      <point x="-587" y="646" type="line"/>
      <point x="-1837" y="646" type="line"/>
      <point x="-1837" y="793" type="line"/>
      <point x="-411" y="793" type="line"/>
      <point x="-36" y="1106" type="line"/>
      <point x="73" y="995" type="line"/>
      <point x="-472" y="547" type="line"/>
    </contour>
    <contour>
      <point x="636" y="94" type="line"/>
      <point x="527" y="-16" type="line"/>
      <point x="-145" y="545" type="line"/>
      <point x="527" y="1106" type="line"/>
      <point x="636" y="995" type="line"/>
      <point x="91" y="547" type="line"/>
    </contour>
  </outline>
</glyph>
<glyph name="exclam_exclam.liga" format="2">
  <advance width="1126"/>
  <outline>
    <contour>
      <point x="-319" y="1413" type="line"/>
      <point x="-346" y="383" type="line"/>
      <point x="-500" y="383" type="line"/>
      <point x="-530" y="1413" type="line"/>
    </contour>
    <contour>
      <point x="-557" y="113" type="qcurve" smooth="yes"/>
      <point x="-557" y="170"/>
      <point x="-481" y="246"/>
      <point x="-424" y="246" type="qcurve" smooth="yes"/>
      <point x="-368" y="246"/>
      <point x="-293" y="169"/>
      <point x="-293" y="57"/>
      <point x="-368" y="-18"/>
      <point x="-480" y="-18"/>
      <point x="-557" y="57"/>
    </contour>
    <contour>
      <point x="525" y="1413" type="line"/>
      <point x="498" y="383" type="line"/>
      <point x="344" y="383" type="line"/>
      <point x="314" y="1413" type="line"/>
    </contour>
    <contour>
      <point x="287" y="113" type="qcurve" smooth="yes"/>
      <point x="287" y="170"/>
      <point x="363" y="246"/>
      <point x="420" y="246" type="qcurve" smooth="yes"/>
      <point x="476" y="246"/>
      <point x="551" y="169"/>
      <point x="551" y="57"/>
      <point x="476" y="-18"/>
      <point x="364" y="-18"/>
      <point x="287" y="57"/>
    </contour>
  </outline>
</glyph>
<glyph name="exclam_exclam_period.liga" format="2">
  <advance width="1126"/>
  <outline>
    <contour>
      <point x="384" y="1413" type="line"/>
      <point x="357" y="383" type="line"/>
      <point x="203" y="383" type="line"/>
      <point x="173" y="1413" type="line"/>
    </contour>
    <contour>
      <point x="146" y="113" type="qcurve" smooth="yes"/>
      <point x="146" y="170"/>
      <point x="222" y="246"/>
      <point x="279" y="246" type="qcurve" smooth="yes"/>
      <point x="335" y="246"/>
      <point x="410" y="169"/>
      <point x="410" y="57"/>
      <point x="335" y="-18"/>
      <point x="223" y="-18"/>
      <point x="146" y="57"/>
    </contour>
    <contour>
      <point x="-1304" y="1413" type="line"/>
      <point x="-1331" y="383" type="line"/>
      <point x="-1485" y="383" type="line"/>
      <point x="-1515" y="1413" type="line"/>
    </contour>
    <contour>
      <point x="-1542" y="113" type="qcurve" smooth="yes"/>
      <point x="-1542" y="170"/>
      <point x="-1466" y="246"/>
      <point x="-1409" y="246" type="qcurve" smooth="yes"/>
      <point x="-1353" y="246"/>
      <point x="-1278" y="169"/>
      <point x="-1278" y="57"/>
      <point x="-1353" y="-18"/>
      <point x="-1465" y="-18"/>
      <point x="-1542" y="57"/>
    </contour>
    <contour>
      <point x="-460" y="1413" type="line"/>
      <point x="-487" y="383" type="line"/>
      <point x="-641" y="383" type="line"/>
      <point x="-671" y="1413" type="line"/>
    </contour>
    <contour>
      <point x="-698" y="113" type="qcurve" smooth="yes"/>
      <point x="-698" y="170"/>
      <point x="-622" y="246"/>
      <point x="-565" y="246" type="qcurve" smooth="yes"/>
      <point x="-509" y="246"/>
      <point x="-434" y="169"/>
      <point x="-434" y="57"/>
      <point x="-509" y="-18"/>
      <point x="-621" y="-18"/>
      <point x="-698" y="57"/>
    </contour>
  </outline>
</glyph>
<glyph name="fourinferior" format="2">
  <advance width="1126"/>
  <outline>
    <contour>
      <point x="920" y="145" type="line"/>
      <point x="784" y="145" type="line"/>
      <point x="784" y="0" type="line"/>
      <point x="623" y="0" type="line"/>
      <point x="623" y="145" type="line"/>
      <point x="211" y="145" type="line"/>
      <point x="211" y="289" type="line"/>
      <point x="555" y="782" type="line"/>
      <point x="784" y="782" type="line"/>
      <point x="784" y="295" type="line"/>
      <point x="920" y="295" type="line"/>
    </contour>
    <contour>
      <point x="627" y="643" type="line"/>
      <point x="385" y="295" type="line"/>
      <point x="627" y="295" type="line"/>
    </contour>
  </outline>
</glyph>
<glyph name="hyphen_bar.liga" format="2">
  <advance width="1126"/>
  <outline>
    <contour>
      <point x="504" y="-410" type="line"/>
      <point x="340" y="-410" type="line"/>
      <point x="340" y="463" type="line"/>
      <point x="-721" y="463" type="line"/>
      <point x="-721" y="627" type="line"/>
      <point x="340" y="627" type="line"/>
      <point x="340" y="1638" type="line"/>
      <point x="504" y="1638" type="line"/>
    </contour>
  </outline>
</glyph>
<glyph name="hyphen_hyphen_hyphen.liga" format="2">
  <advance width="1126"/>
  <outline>
    <contour>
      <point x="580" y="463" type="line"/>
      <point x="-18" y="463" type="line"/>
      <point x="-18" y="627" type="line"/>
      <point x="580" y="627" type="line"/>
    </contour>
    <contour>
      <point x="-264" y="463" type="line"/>
      <point x="-862" y="463" type="line"/>
      <point x="-862" y="627" type="line"/>
      <point x="-264" y="627" type="line"/>
    </contour>
    <contour>
      <point x="-1108" y="463" type="line"/>
      <point x="-1706" y="463" type="line"/>
      <point x="-1706" y="627" type="line"/>
      <point x="-1108" y="627" type="line"/>
    </contour>
  </outline>
</glyph>
<glyph name="hyphen_less.liga" format="2">
  <advance width="1126"/>
  <outline>
    <contour>
      <point x="777" y="94" type="line"/>
      <point x="668" y="-16" type="line"/>
      <point x="94" y="463" type="line"/>
      <point x="-721" y="463" type="line"/>
      <point x="-721" y="627" type="line"/>
      <point x="94" y="627" type="line"/>
      <point x="668" y="1106" type="line"/>
      <point x="777" y="995" type="line"/>
      <point x="232" y="547" type="line"/>
    </contour>
  </outline>
</glyph>
<glyph name="hyphen_less_less.liga" format="2">
  <advance width="1126"/>
  <outline>
    <contour>
      <point x="73" y="94" type="line"/>
      <point x="-36" y="-16" type="line"/>
      <point x="-610" y="463" type="line"/>
      <point x="-1706" y="463" type="line"/>
      <point x="-1706" y="627" type="line"/>
      <point x="-610" y="627" type="line"/>
      <point x="-36" y="1106" type="line"/>
      <point x="73" y="995" type="line"/>
      <point x="-472" y="547" type="line"/>
    </contour>
    <contour>
      <point x="636" y="94" type="line"/>
      <point x="527" y="-16" type="line"/>
      <point x="-145" y="545" type="line"/>
      <point x="527" y="1106" type="line"/>
      <point x="636" y="995" type="line"/>
      <point x="91" y="547" type="line"/>
    </contour>
  </outline>
</glyph>
<glyph name="less_asciitilde_asciitilde.liga" format="2">
  <advance width="1126"/>
  <outline>
    <contour>
      <point x="778" y="696" type="line"/>
      <point x="778" y="532"/>
      <point x="612" y="344"/>
      <point x="454" y="344" type="qcurve" smooth="yes"/>
      <point x="393" y="344"/>
      <point x="290" y="378"/>
      <point x="211" y="434"/>
      <point x="144" y="493"/>
      <point x="64" y="559"/>
      <point x="28" y="578" type="qcurve" smooth="yes"/>
      <point x="-6" y="596"/>
      <point x="-38" y="596" type="qcurve" smooth="yes"/>
      <point x="-64" y="596"/>
      <point x="-119" y="573"/>
      <point x="-150" y="551"/>
      <point x="-174" y="531" type="qcurve" smooth="yes"/>
      <point x="-187" y="521"/>
      <point x="-267" y="451"/>
      <point x="-308" y="419"/>
      <point x="-382" y="374"/>
      <point x="-417" y="362" type="qcurve" smooth="yes"/>
      <point x="-468" y="344"/>
      <point x="-526" y="344" type="qcurve" smooth="yes"/>
      <point x="-576" y="344"/>
      <point x="-663" y="364"/>
      <point x="-743" y="413"/>
      <point x="-788" y="445"/>
      <point x="-873" y="520"/>
      <point x="-886" y="531" type="qcurve" smooth="yes"/>
      <point x="-911" y="551"/>
      <point x="-943" y="574"/>
      <point x="-999" y="595"/>
      <point x="-1028" y="595" type="qcurve" smooth="yes"/>
      <point x="-1048" y="595"/>
      <point x="-1091" y="582"/>
      <point x="-1118" y="568"/>
      <point x="-1163" y="542"/>
      <point x="-1171" y="538" type="qcurve" smooth="yes"/>
      <point x="-1180" y="533"/>
      <point x="-1249" y="495"/>
      <point x="-1274" y="484"/>
      <point x="-1329" y="460"/>
      <point x="-1378" y="450"/>
      <point x="-1407" y="448" type="qcurve" smooth="yes"/>
      <point x="-1409.87" y="447.808"/>
      <point x="-1413.59" y="447.808" type="qcurve" smooth="yes"/>
      <point x="-1438.1" y="447.808"/>
      <point x="-1487" y="455" type="qcurve"/>
      <point x="-1052" y="94" type="line"/>
      <point x="-1161" y="-16" type="line"/>
      <point x="-1833" y="545" type="line"/>
      <point x="-1161" y="1106" type="line"/>
      <point x="-1052" y="995" type="line"/>
      <point x="-1507" y="621" type="line"/>
      <point x="-1420.96" y="612.806"/>
      <point x="-1405.48" y="612.806" type="qcurve" smooth="yes"/>
      <point x="-1393.36" y="612.806"/>
      <point x="-1385" y="614" type="qcurve" smooth="yes"/>
      <point x="-1354" y="618"/>
      <point x="-1271" y="664"/>
      <point x="-1197" y="714"/>
      <point x="-1084" y="754"/>
      <point x="-1025" y="754" type="qcurve" smooth="yes"/>
      <point x="-951" y="754"/>
      <point x="-822" y="700"/>
      <point x="-743" y="631"/>
      <point x="-637" y="542"/>
      <point x="-595" y="520" type="qcurve" smooth="yes"/>
      <point x="-560" y="502"/>
      <point x="-529" y="502" type="qcurve" smooth="yes"/>
      <point x="-503" y="502"/>
      <point x="-448" y="526"/>
      <point x="-422" y="545"/>
      <point x="-395" y="567" type="qcurve" smooth="yes"/>
      <point x="-380" y="579"/>
      <point x="-317" y="636"/>
      <point x="-279" y="667"/>
      <point x="-214" y="712"/>
      <point x="-158" y="736"/>
      <point x="-80" y="754"/>
      <point x="-38" y="754" type="qcurve" smooth="yes"/>
      <point x="23" y="754"/>
      <point x="126" y="720"/>
      <point x="205" y="664"/>
      <point x="272" y="605"/>
      <point x="352" y="539"/>
      <point x="388" y="520" type="qcurve" smooth="yes"/>
      <point x="422" y="502"/>
      <point x="461" y="502" type="qcurve" smooth="yes"/>
      <point x="545" y="502"/>
      <point x="576" y="548" type="qcurve" smooth="yes"/>
      <point x="619" y="611"/>
      <point x="619" y="696" type="qcurve"/>
    </contour>
  </outline>
</glyph>
<glyph name="less_asciitilde_greater.liga" format="2">
  <advance width="1126"/>
  <outline>
    <contour>
      <point x="-342" y="502" type="qcurve" smooth="yes"/>
      <point x="-273" y="502"/>
      <point x="-225" y="601"/>
      <point x="-225" y="696" type="qcurve"/>
      <point x="-65" y="696" type="line"/>
      <point x="-64.9473" y="691.838"/>
      <point x="-64.9473" y="687.716" type="qcurve" smooth="yes"/>
      <point x="-64.9473" y="572.002"/>
      <point x="-146.169" y="408.915"/>
      <point x="-224" y="370" type="qcurve" smooth="yes"/>
      <point x="-276" y="344"/>
      <point x="-348" y="344" type="qcurve" smooth="yes"/>
      <point x="-414" y="344"/>
      <point x="-527" y="398"/>
      <point x="-594" y="467"/>
      <point x="-685" y="556"/>
      <point x="-720" y="578" type="qcurve" smooth="yes"/>
      <point x="-750" y="596"/>
      <point x="-784" y="596" type="qcurve" smooth="yes"/>
      <point x="-850" y="596"/>
      <point x="-900" y="493"/>
      <point x="-900" y="401" type="qcurve"/>
      <point x="-1060" y="401" type="line"/>
      <point x="-1060.2" y="408.748"/>
      <point x="-1060.2" y="416.369" type="qcurve" smooth="yes"/>
      <point x="-1060.2" y="528.44"/>
      <point x="-978.107" y="690.309"/>
      <point x="-902" y="728" type="qcurve" smooth="yes"/>
      <point x="-850" y="754"/>
      <point x="-778" y="754" type="qcurve" smooth="yes"/>
      <point x="-712" y="754"/>
      <point x="-599" y="700"/>
      <point x="-532" y="631"/>
      <point x="-441" y="542"/>
      <point x="-406" y="520" type="qcurve" smooth="yes"/>
      <point x="-376" y="502"/>
    </contour>
    <contour>
      <point x="-860" y="985" type="line"/>
      <point x="-1655" y="543" type="line"/>
      <point x="-860" y="104" type="line"/>
      <point x="-948" y="-16" type="line"/>
      <point x="-1970" y="545" type="line"/>
      <point x="-948" y="1106" type="line"/>
    </contour>
    <contour>
      <point x="-266" y="985" type="line"/>
      <point x="-178" y="1106" type="line"/>
      <point x="844" y="545" type="line"/>
      <point x="-178" y="-16" type="line"/>
      <point x="-266" y="104" type="line"/>
      <point x="529" y="543" type="line"/>
    </contour>
  </outline>
</glyph>
<glyph name="less_bar_bar_bar.liga" format="2">
  <advance width="1126"/>
  <outline>
    <contour>
      <point x="-786" y="-272" type="line"/>
      <point x="-786" y="1364" type="line"/>
      <point x="-622" y="1364" type="line"/>
      <point x="-622" y="-272" type="line"/>
    </contour>
    <contour>
      <point x="58" y="-272" type="line"/>
      <point x="58" y="1364" type="line"/>
      <point x="222" y="1364" type="line"/>
      <point x="222" y="-272" type="line"/>
    </contour>
    <contour>
      <point x="-1466" y="-272" type="line"/>
      <point x="-2955" y="545" type="line"/>
      <point x="-1466" y="1364" type="line"/>
    </contour>
    <contour>
      <point x="-1630" y="-14" type="line"/>
      <point x="-1630" y="1102" type="line"/>
      <point x="-2640" y="543" type="line"/>
    </contour>
  </outline>
</glyph>
<glyph name="less_dollar_greater.liga" format="2">
  <advance width="1126"/>
  <outline>
    <contour>
      <point x="-579" y="1155" type="line"/>
      <point x="-684" y="1155"/>
      <point x="-819" y="1064"/>
      <point x="-819" y="975" type="qcurve" smooth="yes"/>
      <point x="-819" y="906"/>
      <point x="-725" y="818"/>
      <point x="-630" y="780" type="qcurve"/>
    </contour>
    <contour>
      <point x="-567" y="156" type="line"/>
      <point x="-450" y="156"/>
      <point x="-309" y="253"/>
      <point x="-309" y="352" type="qcurve" smooth="yes"/>
      <point x="-309" y="411"/>
      <point x="-371" y="483"/>
      <point x="-426" y="511" type="qcurve" smooth="yes"/>
      <point x="-477" y="537"/>
      <point x="-516" y="551" type="qcurve"/>
    </contour>
    <contour>
      <point x="-437" y="1132" type="line"/>
      <point x="-491" y="725" type="line"/>
      <point x="-429" y="701"/>
      <point x="-349" y="665"/>
      <point x="-250" y="609"/>
      <point x="-178" y="540"/>
      <point x="-154" y="498" type="qcurve" smooth="yes"/>
      <point x="-122" y="443"/>
      <point x="-122" y="362" type="qcurve" smooth="yes"/>
      <point x="-122" y="229"/>
      <point x="-274" y="69"/>
      <point x="-398" y="32" type="qcurve" smooth="yes"/>
      <point x="-499" y="2"/>
      <point x="-587" y="2" type="qcurve"/>
      <point x="-620" y="-236" type="line"/>
      <point x="-766" y="-236" type="line"/>
      <point x="-733" y="2" type="line"/>
      <point x="-1833" y="545" type="line"/>
      <point x="-1161" y="1106" type="line"/>
      <point x="-1052" y="995" type="line"/>
      <point x="-1536" y="596" type="line"/>
      <point x="-712" y="174" type="line"/>
      <point x="-653" y="606" type="line"/>
      <point x="-776" y="653"/>
      <point x="-930" y="748"/>
      <point x="-974" y="825" type="qcurve" smooth="yes"/>
      <point x="-1005" y="880"/>
      <point x="-1005" y="956" type="qcurve" smooth="yes"/>
      <point x="-1005" y="1073"/>
      <point x="-868" y="1227"/>
      <point x="-759" y="1268" type="qcurve" smooth="yes"/>
      <point x="-660" y="1305"/>
      <point x="-559" y="1305" type="qcurve"/>
      <point x="-534" y="1495" type="line"/>
      <point x="-389" y="1495" type="line"/>
      <point x="-415" y="1300" type="line"/>
      <point x="707" y="545" type="line"/>
      <point x="35" y="-16" type="line"/>
      <point x="-73" y="94" type="line"/>
      <point x="454" y="527" type="line"/>
    </contour>
  </outline>
</glyph>
<glyph name="less_equal_greater.liga" format="2">
  <advance width="1126"/>
  <outline>
    <contour>
      <point x="-73" y="995" type="line"/>
      <point x="35" y="1106" type="line"/>
      <point x="707" y="545" type="line"/>
      <point x="35" y="-16" type="line"/>
      <point x="-73" y="94" type="line"/>
      <point x="175" y="298" type="line"/>
      <point x="-1297" y="298" type="line"/>
      <point x="-1052" y="94" type="line"/>
      <point x="-1161" y="-16" type="line"/>
      <point x="-1833" y="545" type="line"/>
      <point x="-1161" y="1106" type="line"/>
      <point x="-1052" y="995" type="line"/>
      <point x="-1298" y="793" type="line"/>
      <point x="171" y="793" type="line"/>
    </contour>
    <contour>
      <point x="-1474" y="445" type="line"/>
      <point x="353" y="445" type="line"/>
      <point x="472" y="543" type="line"/>
      <point x="348" y="646" type="line"/>
      <point x="-1477" y="646" type="line"/>
      <point x="-1597" y="547" type="line"/>
    </contour>
  </outline>
</glyph>
<glyph name="less_exclam_hyphen_hyphen.liga" format="2">
  <advance width="1126"/>
  <outline>
    <contour>
      <point x="-2178" y="94" type="line"/>
      <point x="-2287" y="-18" type="line"/>
      <point x="-2959" y="545" type="line"/>
      <point x="-2287" y="1106" type="line"/>
      <point x="-2178" y="995" type="line"/>
      <point x="-2626" y="627" type="line"/>
      <point x="-1938" y="627" type="line"/>
      <point x="-1938" y="463" type="line"/>
      <point x="-2622" y="463" type="line"/>
    </contour>
    <contour>
      <point x="-1419" y="56"/>
      <point x="-1493" y="-18"/>
      <point x="-1550" y="-18" type="qcurve" smooth="yes"/>
      <point x="-1608" y="-18"/>
      <point x="-1683" y="56"/>
      <point x="-1683" y="113" type="qcurve" smooth="yes"/>
      <point x="-1683" y="171"/>
      <point x="-1608" y="246"/>
      <point x="-1550" y="246" type="qcurve" smooth="yes"/>
      <point x="-1493" y="246"/>
      <point x="-1419" y="170"/>
    </contour>
    <contour>
      <point x="-1445" y="1413" type="line"/>
      <point x="-1472" y="383" type="line"/>
      <point x="-1626" y="383" type="line"/>
      <point x="-1656" y="1413" type="line"/>
    </contour>
    <contour>
      <point x="439" y="463" type="line"/>
      <point x="-1164" y="463" type="line"/>
      <point x="-1164" y="627" type="line"/>
      <point x="439" y="627" type="line"/>
    </contour>
  </outline>
</glyph>
<glyph name="less_less_less.liga" format="2">
  <advance width="1126"/>
  <outline>
    <contour>
      <point x="828" y="985" type="line"/>
      <point x="33" y="543" type="line"/>
      <point x="828" y="104" type="line"/>
      <point x="740" y="-16" type="line"/>
      <point x="-282" y="545" type="line"/>
      <point x="740" y="1106" type="line"/>
    </contour>
    <contour>
      <point x="-16" y="985" type="line"/>
      <point x="-811" y="543" type="line"/>
      <point x="-16" y="104" type="line"/>
      <point x="-104" y="-16" type="line"/>
      <point x="-1126" y="545" type="line"/>
      <point x="-104" y="1106" type="line"/>
    </contour>
    <contour>
      <point x="-860" y="985" type="line"/>
      <point x="-1655" y="543" type="line"/>
      <point x="-860" y="104" type="line"/>
      <point x="-948" y="-16" type="line"/>
      <point x="-1970" y="545" type="line"/>
      <point x="-948" y="1106" type="line"/>
    </contour>
  </outline>
</glyph>
<glyph name="nineinferior" format="2">
  <advance width="1126"/>
  <outline>
    <contour>
      <point x="559" y="799" type="qcurve" smooth="yes"/>
      <point x="729" y="799"/>
      <point x="883" y="620"/>
      <point x="883" y="440" type="qcurve" smooth="yes"/>
      <point x="883" y="71"/>
      <point x="589" y="16" type="qcurve" smooth="yes"/>
      <point x="499" y="0"/>
      <point x="416" y="0" type="qcurve" smooth="yes"/>
      <point x="291" y="0" type="line"/>
      <point x="291" y="143" type="line"/>
      <point x="436" y="143" type="line" smooth="yes"/>
      <point x="558" y="143"/>
      <point x="685" y="214"/>
      <point x="696" y="309" type="qcurve"/>
      <point x="698" y="317" type="line"/>
      <point x="631" y="295"/>
      <point x="530" y="295" type="qcurve" smooth="yes"/>
      <point x="233" y="295"/>
      <point x="233" y="537" type="qcurve" smooth="yes"/>
      <point x="233" y="633"/>
      <point x="341" y="755"/>
      <point x="428" y="781" type="qcurve" smooth="yes"/>
      <point x="488" y="799"/>
    </contour>
    <contour>
      <point x="702" y="463" type="qcurve"/>
      <point x="702" y="557"/>
      <point x="633" y="657"/>
      <point x="551" y="657" type="qcurve" smooth="yes"/>
      <point x="488" y="657"/>
      <point x="408" y="597"/>
      <point x="408" y="543" type="qcurve" smooth="yes"/>
      <point x="408" y="436"/>
      <point x="555" y="436" type="qcurve" smooth="yes"/>
      <point x="657" y="436"/>
    </contour>
  </outline>
</glyph>
<glyph name="num_num_num.liga" format="2">
  <advance width="1126"/>
  <outline>
    <contour>
      <point x="-1261" y="497" type="line"/>
      <point x="-1226" y="847" type="line"/>
      <point x="-1482" y="847" type="line"/>
      <point x="-1517" y="497" type="line"/>
    </contour>
    <contour>
      <point x="-453" y="497" type="line"/>
      <point x="-418" y="847" type="line"/>
      <point x="-674" y="847" type="line"/>
      <point x="-709" y="497" type="line"/>
    </contour>
    <contour>
      <point x="355" y="497" type="line"/>
      <point x="390" y="847" type="line"/>
      <point x="134" y="847" type="line"/>
      <point x="99" y="497" type="line"/>
    </contour>
    <contour>
      <point x="712" y="367" type="line"/>
      <point x="489" y="367" type="line"/>
      <point x="452" y="0" type="line"/>
      <point x="304" y="0" type="line"/>
      <point x="341" y="367" type="line"/>
      <point x="86" y="367" type="line"/>
      <point x="49" y="0" type="line"/>
      <point x="-99" y="0" type="line"/>
      <point x="-62" y="367" type="line"/>
      <point x="-319" y="367" type="line"/>
      <point x="-356" y="0" type="line"/>
      <point x="-504" y="0" type="line"/>
      <point x="-467" y="367" type="line"/>
      <point x="-722" y="367" type="line"/>
      <point x="-759" y="0" type="line"/>
      <point x="-907" y="0" type="line"/>
      <point x="-870" y="367" type="line"/>
      <point x="-1127" y="367" type="line"/>
      <point x="-1164" y="0" type="line"/>
      <point x="-1312" y="0" type="line"/>
      <point x="-1275" y="367" type="line"/>
      <point x="-1530" y="367" type="line"/>
      <point x="-1567" y="0" type="line"/>
      <point x="-1715" y="0" type="line"/>
      <point x="-1678" y="367" type="line"/>
      <point x="-1891" y="367" type="line"/>
      <point x="-1891" y="497" type="line"/>
      <point x="-1665" y="497" type="line"/>
      <point x="-1629" y="847" type="line"/>
      <point x="-1840" y="847" type="line"/>
      <point x="-1840" y="977" type="line"/>
      <point x="-1616" y="977" type="line"/>
      <point x="-1582" y="1307" type="line"/>
      <point x="-1436" y="1307" type="line"/>
      <point x="-1469" y="977" type="line"/>
      <point x="-1213" y="977" type="line"/>
      <point x="-1179" y="1307" type="line"/>
      <point x="-1031" y="1307" type="line"/>
      <point x="-1066" y="977" type="line"/>
      <point x="-808" y="977" type="line"/>
      <point x="-774" y="1307" type="line"/>
      <point x="-628" y="1307" type="line"/>
      <point x="-661" y="977" type="line"/>
      <point x="-405" y="977" type="line"/>
      <point x="-371" y="1307" type="line"/>
      <point x="-223" y="1307" type="line"/>
      <point x="-258" y="977" type="line"/>
      <point x="0" y="977" type="line"/>
      <point x="34" y="1307" type="line"/>
      <point x="180" y="1307" type="line"/>
      <point x="147" y="977" type="line"/>
      <point x="403" y="977" type="line"/>
      <point x="437" y="1307" type="line"/>
      <point x="585" y="1307" type="line"/>
      <point x="550" y="977" type="line"/>
      <point x="765" y="977" type="line"/>
      <point x="765" y="847" type="line"/>
      <point x="537" y="847" type="line"/>
      <point x="502" y="497" type="line"/>
      <point x="712" y="497" type="line"/>
    </contour>
    <contour>
      <point x="-821" y="847" type="line"/>
      <point x="-1079" y="847" type="line"/>
      <point x="-1114" y="497" type="line"/>
      <point x="-857" y="497" type="line"/>
    </contour>
    <contour>
      <point x="-13" y="847" type="line"/>
      <point x="-271" y="847" type="line"/>
      <point x="-306" y="497" type="line"/>
      <point x="-49" y="497" type="line"/>
    </contour>
  </outline>
</glyph>
<glyph name="num_num_num_num.liga" format="2">
  <advance width="1126"/>
  <outline>
    <contour>
      <point x="-2228" y="497" type="line"/>
      <point x="-2193" y="847" type="line"/>
      <point x="-2449" y="847" type="line"/>
      <point x="-2484" y="497" type="line"/>
    </contour>
    <contour>
      <point x="-1420" y="497" type="line"/>
      <point x="-1385" y="847" type="line"/>
      <point x="-1641" y="847" type="line"/>
      <point x="-1676" y="497" type="line"/>
    </contour>
    <contour>
      <point x="196" y="497" type="line"/>
      <point x="231" y="847" type="line"/>
      <point x="-25" y="847" type="line"/>
      <point x="-60" y="497" type="line"/>
    </contour>
    <contour>
      <point x="553" y="367" type="line"/>
      <point x="330" y="367" type="line"/>
      <point x="293" y="0" type="line"/>
      <point x="145" y="0" type="line"/>
      <point x="182" y="367" type="line"/>
      <point x="-73" y="367" type="line"/>
      <point x="-110" y="0" type="line"/>
      <point x="-258" y="0" type="line"/>
      <point x="-221" y="367" type="line"/>
      <point x="-478" y="367" type="line"/>
      <point x="-515" y="0" type="line"/>
      <point x="-663" y="0" type="line"/>
      <point x="-626" y="367" type="line"/>
      <point x="-881" y="367" type="line"/>
      <point x="-918" y="0" type="line"/>
      <point x="-1066" y="0" type="line"/>
      <point x="-1029" y="367" type="line"/>
      <point x="-1286" y="367" type="line"/>
      <point x="-1323" y="0" type="line"/>
      <point x="-1471" y="0" type="line"/>
      <point x="-1434" y="367" type="line"/>
      <point x="-1689" y="367" type="line"/>
      <point x="-1726" y="0" type="line"/>
      <point x="-1874" y="0" type="line"/>
      <point x="-1837" y="367" type="line"/>
      <point x="-2094" y="367" type="line"/>
      <point x="-2131" y="0" type="line"/>
      <point x="-2279" y="0" type="line"/>
      <point x="-2242" y="367" type="line"/>
      <point x="-2497" y="367" type="line"/>
      <point x="-2534" y="0" type="line"/>
      <point x="-2682" y="0" type="line"/>
      <point x="-2645" y="367" type="line"/>
      <point x="-2858" y="367" type="line"/>
      <point x="-2858" y="497" type="line"/>
      <point x="-2632" y="497" type="line"/>
      <point x="-2596" y="847" type="line"/>
      <point x="-2807" y="847" type="line"/>
      <point x="-2807" y="977" type="line"/>
      <point x="-2583" y="977" type="line"/>
      <point x="-2549" y="1307" type="line"/>
      <point x="-2403" y="1307" type="line"/>
      <point x="-2436" y="977" type="line"/>
      <point x="-2180" y="977" type="line"/>
      <point x="-2146" y="1307" type="line"/>
      <point x="-1998" y="1307" type="line"/>
      <point x="-2033" y="977" type="line"/>
      <point x="-1775" y="977" type="line"/>
      <point x="-1741" y="1307" type="line"/>
      <point x="-1595" y="1307" type="line"/>
      <point x="-1628" y="977" type="line"/>
      <point x="-1372" y="977" type="line"/>
      <point x="-1338" y="1307" type="line"/>
      <point x="-1190" y="1307" type="line"/>
      <point x="-1225" y="977" type="line"/>
      <point x="-967" y="977" type="line"/>
      <point x="-933" y="1307" type="line"/>
      <point x="-787" y="1307" type="line"/>
      <point x="-820" y="977" type="line"/>
      <point x="-564" y="977" type="line"/>
      <point x="-530" y="1307" type="line"/>
      <point x="-382" y="1307" type="line"/>
      <point x="-417" y="977" type="line"/>
      <point x="-159" y="977" type="line"/>
      <point x="-125" y="1307" type="line"/>
      <point x="21" y="1307" type="line"/>
      <point x="-12" y="977" type="line"/>
      <point x="244" y="977" type="line"/>
      <point x="278" y="1307" type="line"/>
      <point x="426" y="1307" type="line"/>
      <point x="391" y="977" type="line"/>
      <point x="606" y="977" type="line"/>
      <point x="606" y="847" type="line"/>
      <point x="378" y="847" type="line"/>
      <point x="343" y="497" type="line"/>
      <point x="553" y="497" type="line"/>
    </contour>
    <contour>
      <point x="-612" y="497" type="line"/>
      <point x="-577" y="847" type="line"/>
      <point x="-833" y="847" type="line"/>
      <point x="-868" y="497" type="line"/>
    </contour>
    <contour>
      <point x="-1788" y="847" type="line"/>
      <point x="-2046" y="847" type="line"/>
      <point x="-2081" y="497" type="line"/>
      <point x="-1824" y="497" type="line"/>
    </contour>
    <contour>
      <point x="-465" y="497" type="line"/>
      <point x="-208" y="497" type="line"/>
      <point x="-172" y="847" type="line"/>
      <point x="-430" y="847" type="line"/>
    </contour>
    <contour>
      <point x="-980" y="847" type="line"/>
      <point x="-1238" y="847" type="line"/>
      <point x="-1273" y="497" type="line"/>
      <point x="-1016" y="497" type="line"/>
    </contour>
  </outline>
</glyph>
<glyph name="num_under_parenleft.liga" format="2">
  <advance width="1126"/>
  <outline>
    <contour>
      <point x="-1297" y="497" type="line"/>
      <point x="-1262" y="847" type="line"/>
      <point x="-1518" y="847" type="line"/>
      <point x="-1553" y="497" type="line"/>
    </contour>
    <contour>
      <point x="-940" y="367" type="line"/>
      <point x="-1163" y="367" type="line"/>
      <point x="-1226" y="-266" type="line"/>
      <point x="330" y="-266" type="line"/>
      <point x="18" y="98"/>
      <point x="18" y="524" type="qcurve" smooth="yes"/>
      <point x="18" y="775"/>
      <point x="122" y="1007" type="qcurve" smooth="yes"/>
      <point x="234" y="1258"/>
      <point x="483" y="1489" type="qcurve"/>
      <point x="584" y="1386" type="line"/>
      <point x="196" y="1004"/>
      <point x="196" y="537" type="qcurve" smooth="yes"/>
      <point x="196" y="307"/>
      <point x="294" y="91" type="qcurve" smooth="yes"/>
      <point x="390" y="-121"/>
      <point x="584" y="-313" type="qcurve"/>
      <point x="468" y="-410" type="line"/>
      <point x="-1388" y="-410" type="line"/>
      <point x="-1311" y="367" type="line"/>
      <point x="-1566" y="367" type="line"/>
      <point x="-1603" y="0" type="line"/>
      <point x="-1751" y="0" type="line"/>
      <point x="-1714" y="367" type="line"/>
      <point x="-1927" y="367" type="line"/>
      <point x="-1927" y="497" type="line"/>
      <point x="-1701" y="497" type="line"/>
      <point x="-1665" y="847" type="line"/>
      <point x="-1876" y="847" type="line"/>
      <point x="-1876" y="977" type="line"/>
      <point x="-1652" y="977" type="line"/>
      <point x="-1618" y="1307" type="line"/>
      <point x="-1472" y="1307" type="line"/>
      <point x="-1505" y="977" type="line"/>
      <point x="-1249" y="977" type="line"/>
      <point x="-1215" y="1307" type="line"/>
      <point x="-1067" y="1307" type="line"/>
      <point x="-1102" y="977" type="line"/>
      <point x="-887" y="977" type="line"/>
      <point x="-887" y="847" type="line"/>
      <point x="-1115" y="847" type="line"/>
      <point x="-1150" y="497" type="line"/>
      <point x="-940" y="497" type="line"/>
    </contour>
  </outline>
</glyph>
<glyph name="numbersign_bracketleft.liga" format="2">
  <advance width="1126"/>
  <outline>
    <contour>
      <point x="-312" y="497" type="line"/>
      <point x="-277" y="847" type="line"/>
      <point x="-533" y="847" type="line"/>
      <point x="-568" y="497" type="line"/>
    </contour>
    <contour>
      <point x="697" y="-410" type="line"/>
      <point x="204" y="-410" type="line"/>
      <point x="204" y="367" type="line"/>
      <point x="-178" y="367" type="line"/>
      <point x="-215" y="0" type="line"/>
      <point x="-363" y="0" type="line"/>
      <point x="-326" y="367" type="line"/>
      <point x="-581" y="367" type="line"/>
      <point x="-618" y="0" type="line"/>
      <point x="-766" y="0" type="line"/>
      <point x="-729" y="367" type="line"/>
      <point x="-942" y="367" type="line"/>
      <point x="-942" y="497" type="line"/>
      <point x="-716" y="497" type="line"/>
      <point x="-680" y="847" type="line"/>
      <point x="-891" y="847" type="line"/>
      <point x="-891" y="977" type="line"/>
      <point x="-667" y="977" type="line"/>
      <point x="-633" y="1308" type="line"/>
      <point x="-487" y="1308" type="line"/>
      <point x="-520" y="977" type="line"/>
      <point x="-264" y="977" type="line"/>
      <point x="-230" y="1308" type="line"/>
      <point x="-82" y="1308" type="line"/>
      <point x="-117" y="977" type="line"/>
      <point x="204" y="977" type="line"/>
      <point x="204" y="1448" type="line"/>
      <point x="697" y="1448" type="line"/>
      <point x="697" y="1308" type="line"/>
      <point x="370" y="1308" type="line"/>
      <point x="370" y="-270" type="line"/>
      <point x="697" y="-270" type="line"/>
    </contour>
    <contour>
      <point x="204" y="847" type="line"/>
      <point x="-130" y="847" type="line"/>
      <point x="-165" y="497" type="line"/>
      <point x="204" y="497" type="line"/>
    </contour>
  </outline>
</glyph>
<glyph name="numbersign_exclam.liga" format="2">
  <advance width="1126"/>
  <outline>
    <contour>
      <point x="45" y="367" type="line"/>
      <point x="-178" y="367" type="line"/>
      <point x="-215" y="0" type="line"/>
      <point x="-363" y="0" type="line"/>
      <point x="-326" y="367" type="line"/>
      <point x="-581" y="367" type="line"/>
      <point x="-618" y="0" type="line"/>
      <point x="-766" y="0" type="line"/>
      <point x="-729" y="367" type="line"/>
      <point x="-942" y="367" type="line"/>
      <point x="-942" y="497" type="line"/>
      <point x="-716" y="497" type="line"/>
      <point x="-680" y="847" type="line"/>
      <point x="-891" y="847" type="line"/>
      <point x="-891" y="977" type="line"/>
      <point x="-667" y="977" type="line"/>
      <point x="-633" y="1307" type="line"/>
      <point x="-487" y="1307" type="line"/>
      <point x="-520" y="977" type="line"/>
      <point x="-264" y="977" type="line"/>
      <point x="-230" y="1307" type="line"/>
      <point x="-82" y="1307" type="line"/>
      <point x="-117" y="977" type="line"/>
      <point x="98" y="977" type="line"/>
      <point x="98" y="847" type="line"/>
      <point x="-130" y="847" type="line"/>
      <point x="-165" y="497" type="line"/>
      <point x="45" y="497" type="line"/>
    </contour>
    <contour>
      <point x="-312" y="497" type="line"/>
      <point x="-277" y="847" type="line"/>
      <point x="-533" y="847" type="line"/>
      <point x="-568" y="497" type="line"/>
    </contour>
    <contour>
      <point x="525" y="1413" type="line"/>
      <point x="498" y="383" type="line"/>
      <point x="344" y="383" type="line"/>
      <point x="314" y="1413" type="line"/>
    </contour>
    <contour>
      <point x="287" y="113" type="qcurve" smooth="yes"/>
      <point x="287" y="170"/>
      <point x="363" y="246"/>
      <point x="420" y="246" type="qcurve" smooth="yes"/>
      <point x="476" y="246"/>
      <point x="551" y="169"/>
      <point x="551" y="57"/>
      <point x="476" y="-18"/>
      <point x="364" y="-18"/>
      <point x="287" y="57"/>
    </contour>
  </outline>
</glyph>
<glyph name="numbersign_parenleft.liga" format="2">
  <advance width="1126"/>
  <outline>
    <contour>
      <point x="-312" y="497" type="line"/>
      <point x="-277" y="847" type="line"/>
      <point x="-533" y="847" type="line"/>
      <point x="-568" y="497" type="line"/>
    </contour>
    <contour>
      <point x="249" y="977" type="line"/>
      <point x="360" y="1244"/>
      <point x="624" y="1489" type="qcurve"/>
      <point x="725" y="1386" type="line"/>
      <point x="337" y="1004"/>
      <point x="337" y="537" type="qcurve" smooth="yes"/>
      <point x="337" y="307"/>
      <point x="435" y="91" type="qcurve" smooth="yes"/>
      <point x="531" y="-121"/>
      <point x="725" y="-313" type="qcurve"/>
      <point x="620" y="-420" type="line"/>
      <point x="230" y="-58"/>
      <point x="170" y="367" type="qcurve"/>
      <point x="-178" y="367" type="line"/>
      <point x="-215" y="0" type="line"/>
      <point x="-363" y="0" type="line"/>
      <point x="-326" y="367" type="line"/>
      <point x="-581" y="367" type="line"/>
      <point x="-618" y="0" type="line"/>
      <point x="-766" y="0" type="line"/>
      <point x="-729" y="367" type="line"/>
      <point x="-942" y="367" type="line"/>
      <point x="-942" y="497" type="line"/>
      <point x="-716" y="497" type="line"/>
      <point x="-680" y="847" type="line"/>
      <point x="-891" y="847" type="line"/>
      <point x="-891" y="977" type="line"/>
      <point x="-667" y="977" type="line"/>
      <point x="-633" y="1307" type="line"/>
      <point x="-487" y="1307" type="line"/>
      <point x="-520" y="977" type="line"/>
      <point x="-264" y="977" type="line"/>
      <point x="-230" y="1307" type="line"/>
      <point x="-82" y="1307" type="line"/>
      <point x="-117" y="977" type="line"/>
    </contour>
    <contour>
      <point x="159" y="524" type="line" smooth="yes"/>
      <point x="159" y="694"/>
      <point x="203" y="847" type="qcurve"/>
      <point x="-130" y="847" type="line"/>
      <point x="-165" y="497" type="line"/>
      <point x="159" y="497" type="line"/>
    </contour>
  </outline>
</glyph>
<glyph name="numbersign_underscore.liga" format="2">
  <advance width="1126"/>
  <outline>
    <contour>
      <point x="-313" y="497" type="line"/>
      <point x="-278" y="847" type="line"/>
      <point x="-534" y="847" type="line"/>
      <point x="-569" y="497" type="line"/>
    </contour>
    <contour>
      <point x="44" y="367" type="line"/>
      <point x="-179" y="367" type="line"/>
      <point x="-243" y="-266" type="line"/>
      <point x="985" y="-266" type="line"/>
      <point x="985" y="-410" type="line"/>
      <point x="-406" y="-410" type="line"/>
      <point x="-327" y="367" type="line"/>
      <point x="-582" y="367" type="line"/>
      <point x="-619" y="0" type="line"/>
      <point x="-767" y="0" type="line"/>
      <point x="-730" y="367" type="line"/>
      <point x="-943" y="367" type="line"/>
      <point x="-943" y="497" type="line"/>
      <point x="-717" y="497" type="line"/>
      <point x="-681" y="847" type="line"/>
      <point x="-892" y="847" type="line"/>
      <point x="-892" y="977" type="line"/>
      <point x="-668" y="977" type="line"/>
      <point x="-634" y="1307" type="line"/>
      <point x="-488" y="1307" type="line"/>
      <point x="-521" y="977" type="line"/>
      <point x="-265" y="977" type="line"/>
      <point x="-231" y="1307" type="line"/>
      <point x="-83" y="1307" type="line"/>
      <point x="-118" y="977" type="line"/>
      <point x="97" y="977" type="line"/>
      <point x="97" y="847" type="line"/>
      <point x="-131" y="847" type="line"/>
      <point x="-166" y="497" type="line"/>
      <point x="44" y="497" type="line"/>
    </contour>
  </outline>
</glyph>
<glyph name="plus_greater.liga" format="2">
  <advance width="1126"/>
  <outline>
    <contour>
      <point x="-125" y="985" type="line"/>
      <point x="-37" y="1106" type="line"/>
      <point x="985" y="545" type="line"/>
      <point x="-37" y="-16" type="line"/>
      <point x="-125" y="104" type="line"/>
      <point x="670" y="543" type="line"/>
    </contour>
    <contour>
      <point x="57" y="469" type="line"/>
      <point x="-336" y="469" type="line"/>
      <point x="-336" y="61" type="line"/>
      <point x="-508" y="61" type="line"/>
      <point x="-508" y="469" type="line"/>
      <point x="-901" y="469" type="line"/>
      <point x="-901" y="621" type="line"/>
      <point x="-508" y="621" type="line"/>
      <point x="-508" y="1026" type="line"/>
      <point x="-336" y="1026" type="line"/>
      <point x="-336" y="621" type="line"/>
      <point x="57" y="621" type="line"/>
    </contour>
  </outline>
</glyph>
<glyph name="plus_plus.liga" format="2">
  <advance width="1126"/>
  <outline>
    <contour>
      <point x="901" y="469" type="line"/>
      <point x="508" y="469" type="line"/>
      <point x="508" y="61" type="line"/>
      <point x="336" y="61" type="line"/>
      <point x="336" y="469" type="line"/>
      <point x="-336" y="469" type="line"/>
      <point x="-336" y="61" type="line"/>
      <point x="-508" y="61" type="line"/>
      <point x="-508" y="469" type="line"/>
      <point x="-901" y="469" type="line"/>
      <point x="-901" y="621" type="line"/>
      <point x="-508" y="621" type="line"/>
      <point x="-508" y="1026" type="line"/>
      <point x="-336" y="1026" type="line"/>
      <point x="-336" y="621" type="line"/>
      <point x="336" y="621" type="line"/>
      <point x="336" y="1026" type="line"/>
      <point x="508" y="1026" type="line"/>
      <point x="508" y="621" type="line"/>
      <point x="901" y="621" type="line"/>
    </contour>
  </outline>
</glyph>
<glyph name="question_period.liga" format="2">
  <advance width="1126"/>
  <outline>
    <contour>
      <point x="414" y="315" type="qcurve" smooth="yes"/>
      <point x="469" y="315"/>
      <point x="548" y="257"/>
      <point x="567" y="212" type="qcurve" smooth="yes"/>
      <point x="580" y="183"/>
      <point x="580" y="147" type="qcurve" smooth="yes"/>
      <point x="580" y="76"/>
      <point x="485" y="-18"/>
      <point x="414" y="-18" type="qcurve" smooth="yes"/>
      <point x="359" y="-18"/>
      <point x="280" y="39"/>
      <point x="261" y="83" type="qcurve" smooth="yes"/>
      <point x="248" y="112"/>
      <point x="248" y="147" type="qcurve" smooth="yes"/>
      <point x="248" y="202"/>
      <point x="305" y="283"/>
      <point x="349" y="302" type="qcurve" smooth="yes"/>
      <point x="378" y="315"/>
    </contour>
    <contour>
      <point x="-252" y="952" type="qcurve" smooth="yes"/>
      <point x="-252" y="1015"/>
      <point x="-295" y="1118"/>
      <point x="-369" y="1188"/>
      <point x="-472" y="1236"/>
      <point x="-590" y="1257"/>
      <point x="-657" y="1257" type="qcurve" smooth="yes"/>
      <point x="-682" y="1257" type="line"/>
      <point x="-682" y="1413" type="line"/>
      <point x="-655" y="1413" type="line" smooth="yes"/>
      <point x="-470" y="1413"/>
      <point x="-203" y="1288"/>
      <point x="-126" y="1173" type="qcurve" smooth="yes"/>
      <point x="-63" y="1077"/>
      <point x="-63" y="969" type="qcurve" smooth="yes"/>
      <point x="-63" y="652"/>
      <point x="-414" y="629" type="qcurve"/>
      <point x="-422" y="383" type="line"/>
      <point x="-571" y="383" type="line"/>
      <point x="-584" y="766" type="line"/>
      <point x="-467" y="766" type="line" smooth="yes"/>
      <point x="-361" y="766"/>
      <point x="-252" y="854"/>
    </contour>
    <contour>
      <point x="-629" y="113" type="qcurve" smooth="yes"/>
      <point x="-629" y="170"/>
      <point x="-555" y="246"/>
      <point x="-441" y="246"/>
      <point x="-367" y="170"/>
      <point x="-367" y="56"/>
      <point x="-441" y="-18"/>
      <point x="-498" y="-18" type="qcurve" smooth="yes"/>
      <point x="-554" y="-18"/>
      <point x="-629" y="57"/>
    </contour>
  </outline>
</glyph>
<glyph name="question_question.liga" format="2">
  <advance width="1126"/>
  <outline>
    <contour>
      <point x="377" y="766" type="line" smooth="yes"/>
      <point x="483" y="766"/>
      <point x="592" y="854"/>
      <point x="592" y="952" type="qcurve" smooth="yes"/>
      <point x="592" y="1068"/>
      <point x="458" y="1208"/>
      <point x="350" y="1237" type="qcurve" smooth="yes"/>
      <point x="273" y="1257"/>
      <point x="187" y="1257" type="qcurve" smooth="yes"/>
      <point x="162" y="1257" type="line"/>
      <point x="162" y="1413" type="line"/>
      <point x="189" y="1413" type="line" smooth="yes"/>
      <point x="374" y="1413"/>
      <point x="641" y="1288"/>
      <point x="718" y="1173" type="qcurve" smooth="yes"/>
      <point x="781" y="1077"/>
      <point x="781" y="969" type="qcurve" smooth="yes"/>
      <point x="781" y="652"/>
      <point x="430" y="629" type="qcurve"/>
      <point x="422" y="383" type="line"/>
      <point x="273" y="383" type="line"/>
      <point x="260" y="766" type="line"/>
    </contour>
    <contour>
      <point x="215" y="113" type="qcurve" smooth="yes"/>
      <point x="215" y="170"/>
      <point x="289" y="246"/>
      <point x="403" y="246"/>
      <point x="477" y="170"/>
      <point x="477" y="56"/>
      <point x="403" y="-18"/>
      <point x="346" y="-18" type="qcurve" smooth="yes"/>
      <point x="290" y="-18"/>
      <point x="215" y="57"/>
    </contour>
    <contour>
      <point x="-467" y="766" type="line" smooth="yes"/>
      <point x="-361" y="766"/>
      <point x="-252" y="854"/>
      <point x="-252" y="952" type="qcurve" smooth="yes"/>
      <point x="-252" y="1068"/>
      <point x="-386" y="1208"/>
      <point x="-494" y="1237" type="qcurve" smooth="yes"/>
      <point x="-571" y="1257"/>
      <point x="-657" y="1257" type="qcurve" smooth="yes"/>
      <point x="-682" y="1257" type="line"/>
      <point x="-682" y="1413" type="line"/>
      <point x="-655" y="1413" type="line" smooth="yes"/>
      <point x="-470" y="1413"/>
      <point x="-203" y="1288"/>
      <point x="-126" y="1173" type="qcurve" smooth="yes"/>
      <point x="-63" y="1077"/>
      <point x="-63" y="969" type="qcurve" smooth="yes"/>
      <point x="-63" y="652"/>
      <point x="-414" y="629" type="qcurve"/>
      <point x="-422" y="383" type="line"/>
      <point x="-571" y="383" type="line"/>
      <point x="-584" y="766" type="line"/>
    </contour>
    <contour>
      <point x="-629" y="113" type="qcurve" smooth="yes"/>
      <point x="-629" y="170"/>
      <point x="-555" y="246"/>
      <point x="-441" y="246"/>
      <point x="-367" y="170"/>
      <point x="-367" y="56"/>
      <point x="-441" y="-18"/>
      <point x="-498" y="-18" type="qcurve" smooth="yes"/>
      <point x="-554" y="-18"/>
      <point x="-629" y="57"/>
    </contour>
  </outline>
</glyph>
<glyph name="seven.dnom" format="2">
  <advance width="1126"/>
  <outline>
    <contour>
      <point x="864" y="649" type="line"/>
      <point x="520" y="0" type="line"/>
      <point x="330" y="0" type="line"/>
      <point x="672" y="629" type="line"/>
      <point x="256" y="629" type="line"/>
      <point x="256" y="782" type="line"/>
      <point x="864" y="782" type="line"/>
    </contour>
  </outline>
</glyph>
<glyph name="seven.numr" format="2">
  <advance width="1126"/>
  <outline>
    <contour>
      <point x="864" y="1280" type="line"/>
      <point x="520" y="631" type="line"/>
      <point x="330" y="631" type="line"/>
      <point x="672" y="1260" type="line"/>
      <point x="256" y="1260" type="line"/>
      <point x="256" y="1413" type="line"/>
      <point x="864" y="1413" type="line"/>
    </contour>
  </outline>
</glyph>
<glyph name="sixinferior" format="2">
  <advance width="1126"/>
  <outline>
    <contour>
      <point x="590" y="487" type="qcurve" smooth="yes"/>
      <point x="731" y="487"/>
      <point x="887" y="369"/>
      <point x="887" y="246" type="qcurve" smooth="yes"/>
      <point x="887" y="117"/>
      <point x="703" y="-16"/>
      <point x="559" y="-16" type="qcurve" smooth="yes"/>
      <point x="238" y="-16"/>
      <point x="238" y="334" type="qcurve" smooth="yes"/>
      <point x="238" y="563"/>
      <point x="458" y="782"/>
      <point x="690" y="782" type="qcurve" smooth="yes"/>
      <point x="807" y="782" type="line"/>
      <point x="807" y="641" type="line"/>
      <point x="678" y="641" type="line" smooth="yes"/>
      <point x="560" y="641"/>
      <point x="433" y="566"/>
      <point x="424" y="473" type="qcurve"/>
      <point x="424" y="463" type="line"/>
      <point x="498" y="487"/>
    </contour>
    <contour>
      <point x="569" y="125" type="qcurve" smooth="yes"/>
      <point x="632" y="125"/>
      <point x="713" y="186"/>
      <point x="713" y="240" type="qcurve" smooth="yes"/>
      <point x="713" y="296"/>
      <point x="635" y="350"/>
      <point x="567" y="350" type="qcurve" smooth="yes"/>
      <point x="494" y="350"/>
      <point x="418" y="324" type="qcurve"/>
      <point x="418" y="223"/>
      <point x="485" y="125"/>
    </contour>
  </outline>
</glyph>
<glyph name="slash_asterisk.liga" format="2">
  <advance width="1126"/>
  <outline>
    <contour>
      <point x="820" y="840" type="line"/>
      <point x="752" y="721" type="line"/>
      <point x="471" y="907" type="line"/>
      <point x="494" y="565" type="line"/>
      <point x="351" y="565" type="line"/>
      <point x="373" y="907" type="line"/>
      <point x="86" y="721" type="line"/>
      <point x="23" y="838" type="line"/>
      <point x="330" y="989" type="line"/>
      <point x="23" y="1143" type="line"/>
      <point x="92" y="1260" type="line"/>
      <point x="375" y="1071" type="line"/>
      <point x="351" y="1413" type="line"/>
      <point x="494" y="1413" type="line"/>
      <point x="469" y="1071" type="line"/>
      <point x="752" y="1262" type="line"/>
      <point x="822" y="1139" type="line"/>
      <point x="514" y="987" type="line"/>
    </contour>
    <contour>
      <point x="-18" y="1413" type="line"/>
      <point x="-704" y="-215" type="line"/>
      <point x="-870" y="-215" type="line"/>
      <point x="-184" y="1413" type="line"/>
    </contour>
  </outline>
</glyph>
<glyph name="slash_greater.liga" format="2">
  <advance width="1126"/>
  <outline>
    <contour>
      <point x="-88" y="1249" type="line"/>
      <point x="-704" y="-215" type="line"/>
      <point x="-870" y="-215" type="line"/>
      <point x="-184" y="1413" type="line"/>
      <point x="-18" y="1413" type="line"/>
      <point x="848" y="545" type="line"/>
      <point x="176" y="-16" type="line"/>
      <point x="68" y="94" type="line"/>
      <point x="607" y="538" type="line"/>
    </contour>
  </outline>
</glyph>
<glyph name="slash_slash_slash.liga" format="2">
  <advance width="1126"/>
  <outline>
    <contour>
      <point x="685" y="1413" type="line"/>
      <point x="-1" y="-215" type="line"/>
      <point x="-167" y="-215" type="line"/>
      <point x="519" y="1413" type="line"/>
    </contour>
    <contour>
      <point x="-1003" y="1413" type="line"/>
      <point x="-1689" y="-215" type="line"/>
      <point x="-1855" y="-215" type="line"/>
      <point x="-1169" y="1413" type="line"/>
    </contour>
    <contour>
      <point x="-159" y="1413" type="line"/>
      <point x="-845" y="-215" type="line"/>
      <point x="-1011" y="-215" type="line"/>
      <point x="-325" y="1413" type="line"/>
    </contour>
  </outline>
</glyph>
<glyph name="three.dnom" format="2">
  <advance width="1126"/>
  <outline>
    <contour>
      <point x="696" y="418" type="qcurve"/>
      <point x="773" y="397"/>
      <point x="862" y="315"/>
      <point x="862" y="238" type="qcurve" smooth="yes"/>
      <point x="862" y="58"/>
      <point x="642" y="2" type="qcurve" smooth="yes"/>
      <point x="568" y="-16"/>
      <point x="473" y="-16" type="qcurve" smooth="yes"/>
      <point x="338" y="-16"/>
      <point x="274" y="0" type="qcurve"/>
      <point x="274" y="140" type="line"/>
      <point x="343" y="124"/>
      <point x="479" y="124" type="qcurve" smooth="yes"/>
      <point x="531" y="124"/>
      <point x="616" y="142"/>
      <point x="678" y="193"/>
      <point x="678" y="233" type="qcurve" smooth="yes"/>
      <point x="678" y="266"/>
      <point x="644" y="310"/>
      <point x="581" y="331"/>
      <point x="518" y="338"/>
      <point x="475" y="338" type="qcurve" smooth="yes"/>
      <point x="393" y="338" type="line"/>
      <point x="393" y="467" type="line"/>
      <point x="469" y="467" type="line" smooth="yes"/>
      <point x="641" y="467"/>
      <point x="641" y="573" type="qcurve" smooth="yes"/>
      <point x="641" y="659"/>
      <point x="500" y="659" type="qcurve" smooth="yes"/>
      <point x="392" y="659"/>
      <point x="291" y="627" type="qcurve"/>
      <point x="291" y="768" type="line"/>
      <point x="396" y="799"/>
      <point x="532" y="799" type="qcurve" smooth="yes"/>
      <point x="663" y="799"/>
      <point x="821" y="705"/>
      <point x="821" y="604" type="qcurve" smooth="yes"/>
      <point x="821" y="473"/>
    </contour>
  </outline>
</glyph>
<glyph name="tilde_tilde_greater.liga" format="2">
  <advance width="1126"/>
  <outline>
    <contour>
      <point x="-1903" y="401" type="line"/>
      <point x="-1903" y="565"/>
      <point x="-1737" y="753"/>
      <point x="-1579" y="753" type="qcurve" smooth="yes"/>
      <point x="-1518" y="753"/>
      <point x="-1415" y="719"/>
      <point x="-1336" y="663"/>
      <point x="-1269" y="604"/>
      <point x="-1189" y="538"/>
      <point x="-1153" y="519" type="qcurve" smooth="yes"/>
      <point x="-1118" y="501"/>
      <point x="-1087" y="501" type="qcurve" smooth="yes"/>
      <point x="-1061" y="501"/>
      <point x="-1006" y="524"/>
      <point x="-975" y="546"/>
      <point x="-951" y="566" type="qcurve" smooth="yes"/>
      <point x="-938" y="576"/>
      <point x="-858" y="646"/>
      <point x="-817" y="678"/>
      <point x="-743" y="723"/>
      <point x="-708" y="735" type="qcurve" smooth="yes"/>
      <point x="-657" y="753"/>
      <point x="-599" y="753" type="qcurve" smooth="yes"/>
      <point x="-549" y="753"/>
      <point x="-462" y="733"/>
      <point x="-382" y="684"/>
      <point x="-337" y="652"/>
      <point x="-252" y="577"/>
      <point x="-239" y="566" type="qcurve" smooth="yes"/>
      <point x="-214" y="546"/>
      <point x="-182" y="523"/>
      <point x="-126" y="502"/>
      <point x="-97" y="502" type="qcurve" smooth="yes"/>
      <point x="-77" y="502"/>
      <point x="-34" y="515"/>
      <point x="-7" y="529"/>
      <point x="38" y="555"/>
      <point x="46" y="559" type="qcurve" smooth="yes"/>
      <point x="103" y="589"/>
      <point x="144" y="610"/>
      <point x="234" y="638"/>
      <point x="281" y="642" type="qcurve"/>
      <point x="288" y="642" type="line" smooth="yes"/>
      <point x="308" y="642"/>
      <point x="361" y="635" type="qcurve"/>
      <point x="-74" y="996" type="line"/>
      <point x="35" y="1106" type="line"/>
      <point x="707" y="545" type="line"/>
      <point x="35" y="-16" type="line"/>
      <point x="-74" y="95" type="line"/>
      <point x="381" y="469" type="line"/>
      <point x="293" y="477"/>
      <point x="265" y="477"/>
      <point x="259" y="476" type="qcurve" smooth="yes"/>
      <point x="228" y="472"/>
      <point x="145" y="428"/>
      <point x="72" y="381"/>
      <point x="-41" y="343"/>
      <point x="-100" y="343" type="qcurve" smooth="yes"/>
      <point x="-174" y="343"/>
      <point x="-303" y="397"/>
      <point x="-382" y="466"/>
      <point x="-488" y="555"/>
      <point x="-530" y="577" type="qcurve" smooth="yes"/>
      <point x="-564" y="595"/>
      <point x="-596" y="595" type="qcurve" smooth="yes"/>
      <point x="-622" y="595"/>
      <point x="-677" y="571"/>
      <point x="-703" y="552"/>
      <point x="-730" y="530" type="qcurve" smooth="yes"/>
      <point x="-745" y="518"/>
      <point x="-808" y="461"/>
      <point x="-846" y="430"/>
      <point x="-911" y="385"/>
      <point x="-967" y="361"/>
      <point x="-1045" y="343"/>
      <point x="-1087" y="343" type="qcurve" smooth="yes"/>
      <point x="-1148" y="343"/>
      <point x="-1251" y="377"/>
      <point x="-1330" y="433"/>
      <point x="-1397" y="492"/>
      <point x="-1477" y="558"/>
      <point x="-1513" y="577" type="qcurve" smooth="yes"/>
      <point x="-1548" y="595"/>
      <point x="-1586" y="595" type="qcurve" smooth="yes"/>
      <point x="-1670" y="595"/>
      <point x="-1701" y="549" type="qcurve" smooth="yes"/>
      <point x="-1744" y="486"/>
      <point x="-1744" y="401" type="qcurve"/>
    </contour>
  </outline>
</glyph>
<glyph name="twoinferior" format="2">
  <advance width="1126"/>
  <outline>
    <contour>
      <point x="252" y="686" type="line"/>
      <point x="365" y="799"/>
      <point x="539" y="799" type="qcurve" smooth="yes"/>
      <point x="638" y="799"/>
      <point x="779" y="727"/>
      <point x="813" y="660" type="qcurve" smooth="yes"/>
      <point x="836" y="614"/>
      <point x="836" y="555" type="qcurve" smooth="yes"/>
      <point x="836" y="476"/>
      <point x="769" y="365"/>
      <point x="709" y="312" type="qcurve" smooth="yes"/>
      <point x="668" y="275"/>
      <point x="612" y="236" type="qcurve" smooth="yes"/>
      <point x="498" y="154" type="line"/>
      <point x="883" y="154" type="line"/>
      <point x="883" y="0" type="line"/>
      <point x="246" y="0" type="line"/>
      <point x="246" y="143" type="line"/>
      <point x="463" y="311" type="line" smooth="yes"/>
      <point x="576" y="398"/>
      <point x="615" y="446" type="qcurve" smooth="yes"/>
      <point x="651" y="490"/>
      <point x="651" y="543" type="qcurve" smooth="yes"/>
      <point x="651" y="595"/>
      <point x="578" y="649"/>
      <point x="518" y="649" type="qcurve" smooth="yes"/>
      <point x="416" y="649"/>
      <point x="338" y="580" type="qcurve"/>
    </contour>
  </outline>
</glyph>
<glyph name="x.multiply" format="2">
  <advance width="1126"/>
  <outline>
    <contour>
      <point x="975" y="850" type="line"/>
      <point x="674" y="549" type="line"/>
      <point x="979" y="246" type="line"/>
      <point x="862" y="129" type="line"/>
      <point x="559" y="434" type="line"/>
      <point x="258" y="133" type="line"/>
      <point x="152" y="240" type="line"/>
      <point x="453" y="541" type="line"/>
      <point x="147" y="844" type="line"/>
      <point x="264" y="961" type="line"/>
      <point x="567" y="655" type="line"/>
      <point x="868" y="956" type="line"/>
    </contour>
  </outline>
</glyph>
<glyph name="zero.numr" format="2">
  <advance width="1126"/>
  <outline>
    <contour>
      <point x="573" y="1430" type="qcurve" smooth="yes"/>
      <point x="747" y="1430"/>
      <point x="921" y="1217"/>
      <point x="921" y="1028" type="qcurve" smooth="yes"/>
      <point x="921" y="837"/>
      <point x="733" y="615"/>
      <point x="553" y="615" type="qcurve" smooth="yes"/>
      <point x="379" y="615"/>
      <point x="205" y="827"/>
      <point x="205" y="1016" type="qcurve" smooth="yes"/>
      <point x="205" y="1208"/>
      <point x="392" y="1430"/>
    </contour>
    <contour>
      <point x="383" y="1022" type="qcurve" smooth="yes"/>
      <point x="383" y="962"/>
      <point x="400" y="870"/>
      <point x="439" y="794"/>
      <point x="511" y="754"/>
      <point x="563" y="754" type="qcurve" smooth="yes"/>
      <point x="612" y="754"/>
      <point x="684" y="797"/>
      <point x="724" y="874"/>
      <point x="743" y="966"/>
      <point x="743" y="1022" type="qcurve" smooth="yes"/>
      <point x="743" y="1082"/>
      <point x="726" y="1174"/>
      <point x="687" y="1250"/>
      <point x="615" y="1290"/>
      <point x="563" y="1290" type="qcurve" smooth="yes"/>
      <point x="498" y="1290"/>
      <point x="414" y="1213"/>
      <point x="383" y="1098"/>
    </contour>
  </outline>
</glyph>
<glyph name="zeroinferior" format="2">
  <advance width="1126"/>
  <outline>
    <contour>
      <point x="573" y="799" type="qcurve" smooth="yes"/>
      <point x="747" y="799"/>
      <point x="921" y="586"/>
      <point x="921" y="397" type="qcurve" smooth="yes"/>
      <point x="921" y="206"/>
      <point x="733" y="-16"/>
      <point x="553" y="-16" type="qcurve" smooth="yes"/>
      <point x="379" y="-16"/>
      <point x="205" y="196"/>
      <point x="205" y="385" type="qcurve" smooth="yes"/>
      <point x="205" y="577"/>
      <point x="392" y="799"/>
    </contour>
    <contour>
      <point x="383" y="391" type="qcurve" smooth="yes"/>
      <point x="383" y="331"/>
      <point x="400" y="239"/>
      <point x="439" y="163"/>
      <point x="511" y="123"/>
      <point x="563" y="123" type="qcurve" smooth="yes"/>
      <point x="612" y="123"/>
      <point x="684" y="166"/>
      <point x="724" y="243"/>
      <point x="743" y="335"/>
      <point x="743" y="391" type="qcurve" smooth="yes"/>
      <point x="743" y="451"/>
      <point x="726" y="543"/>
      <point x="687" y="619"/>
      <point x="615" y="659"/>
      <point x="563" y="659" type="qcurve" smooth="yes"/>
      <point x="498" y="659"/>
      <point x="414" y="582"/>
      <point x="383" y="467"/>
    </contour>
  </outline>
</glyph>
